/* XPM */
static char *Terrain__16x16__copy1704809242[] = {
/* columns rows colors chars-per-pixel */
"50 50 114 2 ",
"   c #D0A06F",
".  c #D09F6E",
"X  c #CF9E6E",
"o  c #CE9C6C",
"O  c #D0A070",
"+  c #DCB988",
"@  c #E5CB99",
"#  c #BD7C5E",
"$  c #C58A65",
"%  c #CE9D6D",
"&  c #D2A574",
"*  c #D7AF7E",
"=  c #D6AB7F",
"-  c #D4A67E",
";  c #A34A46",
":  c #B36954",
">  c #CA956A",
",  c #D09F6F",
"<  c #D8B07F",
"1  c #DDBB8C",
"2  c #CA926E",
"3  c #BB7257",
"4  c #9F4442",
"5  c #A65149",
"6  c #B46A55",
"7  c #C68C65",
"8  c #D1A170",
"9  c #D1A372",
"0  c #DBB684",
"q  c #D7AE81",
"w  c #CA936F",
"e  c #BE795D",
"r  c #B76B52",
"t  c #A14744",
"y  c #A04543",
"u  c #A24A45",
"i  c #B77058",
"p  c #C89168",
"a  c #CE9C6D",
"s  c #D6AB7B",
"d  c #DBB687",
"f  c #CE9B75",
"g  c #BA7156",
"h  c #B86B52",
"j  c #B96E54",
"k  c #A14644",
"l  c #A54E48",
"z  c #B26653",
"x  c #C88E6B",
"c  c #BD765A",
"v  c #B96D53",
"b  c #9F4342",
"n  c #B76A51",
"m  c #A04443",
"M  c #BF7A5D",
"N  c #C68C64",
"B  c #D5A975",
"V  c #DDB985",
"C  c #D8AF81",
"Z  c #CB936F",
"A  c #BE7A5D",
"S  c #B36D57",
"D  c #C4926E",
"F  c #CFA782",
"G  c #C89574",
"H  c #B86C52",
"J  c #A04744",
"K  c #984749",
"L  c #934950",
"P  c #964F55",
"I  c #A55D55",
"U  c #B76C54",
"Y  c #BA6F54",
"T  c #A24844",
"R  c #9E4544",
"E  c #953F45",
"W  c #893545",
"Q  c #802E44",
"!  c #802D43",
"~  c #8E3D47",
"^  c #A3564E",
"/  c #B36752",
"(  c #BB7054",
")  c #A04644",
"_  c #873546",
"`  c #843346",
"'  c #893947",
"]  c #A4564E",
"[  c #9F4544",
"{  c #933D45",
"}  c #8A3746",
"|  c #833346",
" . c #833246",
".. c #8F3F49",
"X. c #A0524D",
"o. c #B46953",
"O. c #BB7155",
"+. c #974045",
"@. c #883646",
"#. c #823145",
"$. c #8C3B48",
"%. c #A6594F",
"&. c #853346",
"*. c #853446",
"=. c #BA7054",
"-. c #BB7055",
";. c #963F45",
":. c #A4574F",
">. c #B76C53",
",. c #8F3B45",
"<. c #8B3746",
"1. c #904049",
"2. c #984A4B",
"3. c white",
/* pixels */
"  . X X X X X X X X X X X X X X X X X X X X X X X X X X X X X X X X X X X X X X X X X X X X o O + @ ",
"# $ X   X X X X X X X X X X X X X X X X X X X X X X X X X X X X X X X X X X X X X X X X X % & * = - ",
"; : > X X X X X X X X X X X X X X X X X X X X X X X X X X X X X X X X X X X X X X X X X X , < 1 2 3 ",
"4 5 6 7 8 , X X X X X X X X X X X X X X X X X X X X X X X X X X X X X X X X X X X X X o 9 0 q w e r ",
"t y u i p a , X X X X X X X X X X X X X X X X X X X X X X X X X X X X X X X X X X X X 9 s d f g h j ",
"t k t l z p 8 X X X X X X X X X X X X X X X X X X X X X X X X X X X X X X X X X X % , 0 d x c j v j ",
"t t t b l i 7 X   X X X X X X X X X X X X X X X X X X X X X X X X X X X X X X X % & < q f c n j j j ",
"t t t t t u 6 > X X X X X X X X X X X X X X X X X X X X X X X X X X X X X X X X , < 1 w g j j j j j ",
"t t t t k m 5 6 7 8 , X X X X X X X X X X X X X X X X X X X X X X X X X X X o 9 0 q w M h v j j j j ",
"t t t t t t m u i p a , X X X X X X X X X X X X X X X X X X X X X X X X X X 9 s d f g h j j j j j j ",
"t t t t t t k t l z p 8 X X X X X X X X X X X X X X X X X X X X X X X X % , 0 d x c j v j j j j j j ",
"t t t t t t t t b l i 7 X   X X X X X X X X X X X X X X X X X X X X X % & < q f c n j j j j j j j j ",
"t t t t t t t t t t u 6 > X X X X X X X X X X X X X X X X X X X X X X , < 1 w g j j j j j j j j j j ",
"t t t t t t t t t k m 5 6 7 8 , X X X X X X X X X X X X X X X X X o 9 0 q w M h v j j j j j j j j j ",
"t t t t t t t t t t t m u i p a , X X X X X X X X X X X X X X X X 9 s d f g h j j j j j j j j j j j ",
"t t t t t t t t t t t k t l z p 8 X X X X X X X X X X X X X X % , 0 d x c j v j j j j j j j j j j j ",
"t t t t t t t t t t t t t b l i 7 X   X X X X X X X X X X X % & < q f c n j j j j j j j j j j j j j ",
"t t t t t t t t t t t t t t t u 6 > X X X X X X X X X X X X , < 1 w g j j j j j j j j j j j j j j j ",
"t t t t t t t t t t t t t t k m 5 6 7 8 , X X X X X X X o 9 0 q w M h v j j j j j j j j j j j j j j ",
"t t t t t t t t t t t t t t t t m u i p a , X X X X X X 9 s d f g h j j j j j j j j j j j j j j j j ",
"t t t t t t t t t t t t t t t t k t l z p 8 X X X X % , 0 d x c j v j j j j j j j j j j j j j j j j ",
"t t t t t t t t t t t t t t t t t t b l i 7 X   X % & < q f c n j j j j j j j j j j j j j j j j j j ",
"t t t t t t t t t t t t t t t t t t t t u 6 > X X , < 1 w g j j j j j j j j j j j j j j j j j j j j ",
"t t t t t t t t t t t t t t t t t t t k m 5 6 N B V C Z A h v j j j j j j j j j j j j j j j j j j j ",
"t t t t t t t t t t t t t t t t t t t t t y u S D F G g H j j j j j j j j j j j j j j j j j j j j j ",
"t t t t t t t t t t t t t t t t t t t t t t J K L P I U Y j j j j j j j j j j j j j j j j j j j j j ",
"t t t t t t t t t t t t t t t t t t t t T R E W Q ! ~ ^ / ( Y j j j j j j j j j j j j j j j j j j j ",
"t t t t t t t t t t t t t t t t t t t t ) E _ ` ` ` ` ' ] U j j j j j j j j j j j j j j j j j j j j ",
"t t t t t t t t t t t t t t t t t t T [ { } ` | ` `  .` ..X.o.O.j j j j j j j j j j j j j j j j j j ",
"t t t t t t t t t t t t t t t t t t [ +.@. .` ` ` ` ` ` #.$.%.o.j Y j j j j j j j j j j j j j j j j ",
"t t t t t t t t t t t t t t t t T ) { @.&.` ` ` ` ` ` `  .*.$.X.U ( j j j j j j j j j j j j j j j j ",
"t t t t t t t t t t t t t t t T R E }  .` ` ` ` ` ` ` ` `  .#...] / ( Y j j j j j j j j j j j j j j ",
"t t t t t t t t t t t t t t t ) E _ ` ` ` ` ` ` ` ` ` ` ` ` ` ` ' ] U j j j j j j j j j j j j j j j ",
"t t t t t t t t t t t t t T [ { } ` | ` ` ` ` ` ` ` ` ` ` ` `  .` ..X.o.O.j j j j j j j j j j j j j ",
"t t t t t t t t t t t t t [ +.@. .` ` ` ` ` ` ` ` ` ` ` ` ` ` ` ` #.$.%.o.j Y j j j j j j j j j j j ",
"t t t t t t t t t t t T ) { @.&.` ` ` ` ` ` ` ` ` ` ` ` ` ` ` ` `  .*.$.X.U ( j j j j j j j j j j j ",
"t t t t t t t t t t T R E }  .` ` ` ` ` ` ` ` ` ` ` ` ` ` ` ` ` ` `  .#...] / ( Y j j j j j j j j j ",
"t t t t t t t t t t ) E _ ` ` ` ` ` ` ` ` ` ` ` ` ` ` ` ` ` ` ` ` ` ` ` ` ' ] U j j j j j j j j j j ",
"t t t t t t t t T [ { } ` | ` ` ` ` ` ` ` ` ` ` ` ` ` ` ` ` ` ` ` ` ` `  .` ..X.o.O.j j j j j j j j ",
"t t t t t t t t [ +.@. .` ` ` ` ` ` ` ` ` ` ` ` ` ` ` ` ` ` ` ` ` ` ` ` ` ` #.$.%.o.j Y j j j j j j ",
"t t t t t t T ) { @.&.` ` ` ` ` ` ` ` ` ` ` ` ` ` ` ` ` ` ` ` ` ` ` ` ` ` `  .*.$.X.U ( j j j j j j ",
"t t t t t T R E }  .` ` ` ` ` ` ` ` ` ` ` ` ` ` ` ` ` ` ` ` ` ` ` ` ` ` ` ` `  .#...] / ( Y j j j j ",
"t t t t t ) E _ ` ` ` ` ` ` ` ` ` ` ` ` ` ` ` ` ` ` ` ` ` ` ` ` ` ` ` ` ` ` ` ` ` ` ' ] U j j j j j ",
"t t t T [ { } ` | ` ` ` ` ` ` ` ` ` ` ` ` ` ` ` ` ` ` ` ` ` ` ` ` ` ` ` ` ` ` ` `  .` ..X.o.O.j j j ",
"t t t [ +.@. .` ` ` ` ` ` ` ` ` ` ` ` ` ` ` ` ` ` ` ` ` ` ` ` ` ` ` ` ` ` ` ` ` ` ` ` #.$.%.o.j Y j ",
"t T ) { @.&.` ` ` ` ` ` ` ` ` ` ` ` ` ` ` ` ` ` ` ` ` ` ` ` ` ` ` ` ` ` ` ` ` ` ` ` `  .*.$.X.U =.j ",
"T R E }  .` ` ` ` ` ` ` ` ` ` ` ` ` ` ` ` ` ` ` ` ` ` ` ` ` ` ` ` ` ` ` ` ` ` ` ` ` ` `  .#...] / -.",
") ;._ ` ` ` ` ` ` ` ` ` ` ` ` ` ` ` ` ` ` ` ` ` ` ` ` ` ` ` ` ` ` ` ` ` ` ` ` ` ` ` ` ` ` ` ` ' :.>.",
",.<.` | ` ` ` ` ` ` ` ` ` ` ` ` ` ` ` ` ` ` ` ` ` ` ` ` ` ` ` ` ` ` ` ` ` ` ` ` ` ` ` ` ` `  .` 1.2.",
"| ` ` ` ` ` ` ` ` ` ` ` ` ` ` ` ` ` ` ` ` ` ` ` ` ` ` ` ` ` ` ` ` ` ` ` ` ` ` ` ` ` ` ` ` ` ` `  . ."
};
