/* XPM */
static char *Textures_161703799793[] = {
/* columns rows colors chars-per-pixel */
"50 50 26 1 ",
"  c #151324",
". c #1C1626",
"X c #1F1827",
"o c #201727",
"O c #211827",
"+ c #241A29",
"@ c #2C1E2B",
"# c #301F2C",
"$ c #2F202C",
"% c #33212D",
"& c #3A242E",
"* c #3E2731",
"= c #3F2831",
"- c #41272E",
"; c #45292F",
": c #432932",
"> c #4B2D32",
", c #512F33",
"< c #553134",
"1 c #5B3335",
"2 c #623636",
"3 c #653837",
"4 c #6A3A37",
"5 c #673938",
"6 c #6B3B38",
"7 c #723D39",
/* pixels */
"*=>>11112675:+.+%:***>,,:$o.+@@#$#%********:**$+  ",
"*=:><<112562:@++%***:>,<:@..@@@#$%************$+. ",
"**:>>,,,<121>*#@$%%*:><,:@X.+@##$#%%********%$@@++",
"**::>>>>>,,<<,>*@@$%:><<:#X.+@@#$#*********%@+@@$$",
"*=*=**==**:><22:$+@#-><,:@..+####%%**:*-***@+o@$**",
"***********:<22,*$@#%:,,:#..+###@%**::::**%+++@%**",
"**=********:><<<>>##@*>,>@.++$##%%%*:>>>*#++++$%**",
"*****=********><21>#+#>,:#..+$$#@%%*:>,,*++++$%***",
"=*=***********:<22,&#%;;&@X +@@+@@#%&:;;#++.@%%***",
"**=*=*=*=******>,<,,;;&%@o..XooooOO+@#%%$@+@@%%%**",
"*******=********;><22,%+.   X ..o..oXXoo+@@@@$%**=",
"=*=*=***********&;<44,%.  ..X++++++++X..++$$$$#***",
"**=********:****&:146<%.  .O@#&&&&;;&@. +@####%***",
"=****==*********-;<54,%.  .+&>>>,,12,-+..+####%***",
"*=**************=:154,%.  +@-,1<<1242>#++@@@@##%=*",
"***=*=*=********=:<64<%. .@%->,,,,<11,>*#++@@@****",
"*=***************:164<#oo@%*:::::::>,<1<*@.X@@%***",
"******=*********=:<12>#++#&****:****>155>%@+@@#***",
"*****:*********:>>>,>&$@@&==********:,11,>*@@O#&**",
":*****=*******:><>:&@@%%&&***=*******:>>,1,*@o@#*:",
"****=****=***::>>>&@O+%****=******=***=:<52>#+@#**",
"***********::>>:;*%+O@%*=:***=*********:,11<:*##$$",
"***********:>,>-%@++@$&*=******=*******::>><<,;#+o",
"**=**=****=:>,>&@.O@@%**-***=***=*******-::144,#o ",
":*****:*::>>>:-#+++@%%&****************=**:<66<#. ",
":***==*::>>>-#@@+++$$$******=*=*****=***%*:166<%  ",
"********:>,>*@.+@$$$$%***********:********:155>%. ",
"%$$%$%#$%*:-@. o@$$$%%%*:*****:*******=*::>,,,*@  ",
"++++++@++@@+o..o@$#$$%**:**************::>>>*%+o  ",
"........oooo...o+$$$%%***********:*****:,<>*@+o...",
"++.++++++@@+o..o@##$$%******:**=*****::>>::*@+.+++",
"@$@$$#%*:>>:$o.o+$#$%%%*:***********::>>-*#@@@@$@@",
"*%*%**:,<25<*+++@####%%*********:***:><>*@+@$*&***",
"****=:><<552>%@++@@@#%***-**********::>:%++@%=****",
"*::*=::>,<<<,,:%++O@%&**:*:********:=*%$$@$%***===",
"****==:::::,121:@oo@#%&*************%@@+@%%*****=*",
"***********:<32>#@++@@&&*****%*****%%@++$%*=******",
"***********:,,1,>-&@+@#&*%*%*%*%%%$@@@@@%**:******",
"******:*****::,<21;@oo@##%$##%#%%@@+X@$%*********=",
"***:******:***>,22,%@++@@@@@@@@@@@..+@****=***=***",
"***************><1<>-%@Oo++++++++++@@%************",
"***************:>><1<>#o.........+@%*******=*:**=*",
"*****************:,22,&+.. ... ..+$%**************",
"=::**:*****:*****:><1<>&@+.    .++$******=********",
"*****:************:>,,11:#o   .++$%****:****:****=",
"****%****%****=*****:,24,#o  .++@$***:************",
"$$@$@$$$$$@%%*******:,441&o .+++$%%***************",
"+++++++++++@$**=****:<441#o.++$@$$%******:**:****=",
" ...... ....$%******:<561*..+@##$%%******==*===***",
"           .+**:****:,56,%..+@##$$%**:****==*=****"
};
