/* XPM */
static char *c1703951071[] = {
/* columns rows colors chars-per-pixel */
"50 50 225 2 ",
"   c None",
".  c #110B02",
"X  c #1B1202",
"o  c #482E01",
"O  c #5D3900",
"+  c #763727",
"@  c #5C400E",
"#  c #664200",
"$  c #764C00",
"%  c #7E5200",
"&  c #6E686C",
"*  c #863E2E",
"=  c #895601",
"-  c #975D03",
";  c #A95A1F",
":  c #9D6700",
">  c #997C0A",
",  c #A06600",
"<  c #AA6B00",
"1  c #B46C05",
"2  c #B67500",
"3  c #B97704",
"4  c #88422A",
"5  c #984533",
"6  c #90462B",
"7  c #A5482C",
"8  c #AB542A",
"9  c #B65B2D",
"0  c #BA5E2B",
"q  c #B55627",
"w  c #A54C32",
"e  c #A94E33",
"r  c #AC5334",
"t  c #AE583C",
"y  c #AA5338",
"u  c #B35A31",
"i  c #B15733",
"p  c #BC632B",
"a  c #BE6729",
"s  c #B76134",
"d  c #BD7B33",
"f  c #C47A00",
"g  c #C67608",
"h  c #DA7C0F",
"j  c #C86A1D",
"k  c #CC7218",
"l  c #D2751C",
"z  c #D5791C",
"x  c #D57A15",
"c  c #C56B24",
"v  c #C56924",
"b  c #CB7223",
"n  c #C6782B",
"m  c #D57C25",
"M  c #C27B33",
"N  c #B15D43",
"B  c #BD7852",
"V  c #C17D6C",
"C  c #7F8313",
"Z  c #969615",
"A  c #979A14",
"S  c #989613",
"D  c #949311",
"F  c #B78607",
"G  c #B1B51A",
"H  c #A6A91B",
"J  c #99982A",
"K  c #9EA121",
"L  c #BABB3F",
"P  c #C98002",
"I  c #DE8D02",
"U  c #D78506",
"Y  c #DA9D02",
"T  c #DB8214",
"R  c #D9881A",
"E  c #C69005",
"W  c #E6890C",
"Q  c #E59200",
"!  c #ED9901",
"~  c #E89309",
"^  c #F59C02",
"/  c #FA9C02",
"(  c #F49909",
")  c #E48C13",
"_  c #E48814",
"`  c #EB9915",
"'  c #C6BE14",
"]  c #C9AD0C",
"[  c #FEA301",
"{  c #FFAB02",
"}  c #FDA30A",
"|  c #F5A50A",
" . c #FFBC0C",
".. c #FBB507",
"X. c #F5AB11",
"o. c #E5B918",
"O. c #FFB613",
"+. c #FFB618",
"@. c #E9AD11",
"#. c #DD8A28",
"$. c #D39826",
"%. c #C88B36",
"&. c #D99C3B",
"*. c #D48E36",
"=. c #DDB736",
"-. c #D9AF26",
";. c #F5A426",
":. c #FFB726",
">. c #FFB936",
",. c #F1A833",
"<. c #BEC216",
"1. c #C9C217",
"2. c #D4CD19",
"3. c #FAC60B",
"4. c #FDC917",
"5. c #FDDB15",
"6. c #FBD81A",
"7. c #E7CF15",
"8. c #E0E11C",
"9. c #F9E61E",
"0. c #FFFF1F",
"q. c #CDD121",
"w. c #DFDF22",
"e. c #DFC028",
"r. c #FFDF2A",
"t. c #E6C938",
"y. c #FFD839",
"u. c #EECE28",
"i. c #E0E122",
"p. c #EAE626",
"a. c #FAE926",
"s. c #FEFE23",
"d. c #FEFE2B",
"f. c #FDF627",
"g. c #FBEC36",
"h. c #FEFD34",
"j. c #FEF738",
"k. c #99945E",
"l. c #A09F49",
"z. c #AEA852",
"x. c #9C8E6F",
"c. c #B9B571",
"v. c #CA8551",
"b. c #E59943",
"n. c #E29F5C",
"m. c #D6AB5B",
"M. c #FEBD4A",
"N. c #F2B144",
"B. c #F2BA53",
"V. c #C68569",
"C. c #C68673",
"Z. c #DFBC64",
"A. c #FABD66",
"S. c #FFC34A",
"D. c #F6CB42",
"F. c #FDD94B",
"G. c #FFC658",
"H. c #EED255",
"J. c #FFD65D",
"K. c #E5D14B",
"L. c #FBE945",
"P. c #FFFD44",
"I. c #FEFB49",
"U. c #F8EC57",
"Y. c #FFF756",
"T. c #E1E154",
"R. c #FECB6B",
"E. c #FFD96E",
"W. c #FFD37A",
"Q. c #EECB70",
"!. c #FDEE66",
"~. c #FFFE6A",
"^. c #FFF563",
"/. c #FFFC71",
"(. c #FFF67C",
"). c #EEE56D",
"_. c #968E8A",
"`. c #AFA796",
"'. c #9994A2",
"]. c #BFB8B4",
"[. c #DBAF94",
"{. c #C4B9B4",
"}. c #E3BCA7",
"|. c #E4BEB2",
" X c #E6C585",
".X c #FBDA85",
"XX c #FED595",
"oX c #EECD92",
"OX c #FEE983",
"+X c #FFF98B",
"@X c #FFF688",
"#X c #FCEB9B",
"$X c #FFF997",
"%X c #D9CEB8",
"&X c #E7D7AA",
"*X c #FFDCA4",
"=X c #FEDCA8",
"-X c #FCD6A7",
";X c #E6C3B9",
":X c #E6C2B5",
">X c #E8D5BA",
",X c #EEC8AD",
"<X c #FDEBA4",
"1X c #FBEBA8",
"2X c #FFF5AA",
"3X c #FFFAA7",
"4X c #FCE6B6",
"5X c #FEF3BC",
"6X c #FFFDB4",
"7X c #EDCFC5",
"8X c #ECDECC",
"9X c #FEE8C7",
"0X c #FFF4CE",
"qX c #FFF6C4",
"wX c #FBE5D5",
"eX c #FDEED4",
"rX c #FDECDC",
"tX c #F7E1D7",
"yX c #FFF4D2",
"uX c #FEF8D7",
"iX c #FEEEE2",
"pX c #FFF2E3",
"aX c #FFF1ED",
"sX c #FFFAE7",
"dX c #FFF3F3",
/* pixels */
"                                                                                                    ",
"                                                                                                    ",
"                                                                                                    ",
"                                                                                                    ",
"                                                                                                    ",
"                                                                                                    ",
"                                                                                                    ",
"                                                                                                    ",
"                                                                                                    ",
"                                                                                                    ",
"                                                                                                    ",
"                                                                                                    ",
"                                                                                                    ",
"                        : , : : > S A A A D S Z Z Z Z Z A A A A K k._.x.l.K                         ",
"                      3 I Q Q Q o.7.i.i.w.w.w.w.w.w.w.8.w.8.8.8.T. X%X&X).w.<.                      ",
"                    = U [ / / | 3.9.f.h.h.h.d.d.d.d.d.s.d.d.d.h.Y.$X5X3X^.g.2.S                     ",
"                  : f ! [ ( ) ) @.4.a.Y./.~.I.d.0.0.s.0.0.d.I.~.@X$X$X/.L.r.7.1.H                   ",
"                < Q ^ [ [ ~ b c z | :.E.<X3X~.h.0.0.s.0.s.h./.2X2X+XY.g.4. .3.6.i.G                 ",
"              = P ^ / / ~ z p 9 j W ;.R.*X<X(.Y.P.P.I.P.P.^.$XyXqX(.a.5. .{  .5.9.2.D               ",
"            < f Q / / W l p r e q j m b.A.W.OX+X+X+X+X+X+X$XqXpX9XE.6...{ [ { 3.3.7.1.G             ",
"          2 Q ^ [ [ ~ l u y y r e i v R ;.M..X9XyXyX0X0X0XyXpXpX4XA.:.[ { [ [ } ..4.9.w.G           ",
"          E ..O.:.>.,.*.%.d d d B B V b.>.A.*XrXdXdXaXaXaXaXdXaX9X.XM.:.O. .+.:.>.F.I.U.L           ",
"          ] 4.g.J.W.Q.H.e.e.e.t.Z.[.}.oXXXXXeXaXdXdXaXaXdXdXdXdXrX9XXXE.y.a.y.E..X<X$X#Xc.          ",
"          1.p.L.@X9X4X!.g.9.9.g.).4XwXtXtXwXwXiXiXaXaXpXiXpXpXpXrXrXeX<XU.g.U.#X9XrXrX8X`.          ",
"            q.T.1XuX5X!.a.6.u.t.Q.,X;X|.;X:X|.|.7XtXiXyX5X2X<X*X=X=X*X.XH.t.H..X-X>X%X{._.          ",
"            C z.%XrX5XJ.4.@.$.%.l.V.C.C.C.C.V C.[.7XeX6X(.Y.F.S.M.M.M.N.&.%.&.N.B.z.V &             ",
"                ].8X<XG.X.~ b u i i t t t t e N C.|.rX6X~.g.6.O.[ / } ) b p b _ ~ 3 @               ",
"                '.{. XD.+.@.R v q e e 7 e 7 7 y V |.rXqX$XU.y.../ W _ h l b k f 1 =                 ",
"                    z.u.a.4.X.) l 9 e e e e 7 t V.|.rXsX0X<XJ.+.^ h v j T W g = O                   ",
"                      q.p.5. .^ h v i i r r 8 s V.,XrXsXuX4XR.;.W l p v T Q 3 #                     ",
"                        1.o.{ [ ( h b 0 i q v m n.,XrXuX3XOXB.*.z z z k 1 , %                       ",
"                          F ( / / ( _ b 0 q k ` B.=XyX6X/.L.=.M v z ~ U = o                         ",
"                            U ! [ [ ! z u a T } M.*XeX1X!.e.$.n c x U 2 # .                         ",
"                              3 Q [ ^ m 9 a _ } S.=XwX&Xm.$.$._ x 1 = $                             ",
"                                P ! ( z 9 v h ( M.*XwX}.v.n z ~ U : o X                             ",
"                                  U U c u 9 k _ N..X<X Xv.j k f 2 $ X                               ",
"                                    - 8 i i 0 n &.H.U.F.,.U 1 = #                                   ",
"                                      4 w e e u %.t.g.6.X.I - o .                                   ",
"                                        4 5 5 t %.o.5...Y F %                                       ",
"                                          + 6 y b ` ..Y : #                                         ",
"                                            4 e v _ ! 3 #                                           ",
"                                              6 8 g f :                                             ",
"                                                                                                    ",
"                                                                                                    ",
"                                                                                                    ",
"                                                                                                    ",
"                                                                                                    ",
"                                                                                                    ",
"                                                                                                    ",
"                                                                                                    "
};
