/* XPM */
static char *Torch__1_1704811542[] = {
/* columns rows colors chars-per-pixel */
"50 50 222 2 ",
"   c None",
".  c #0B0015",
"X  c #0F0114",
"o  c #120215",
"O  c #110017",
"+  c #120117",
"@  c #130117",
"#  c #120217",
"$  c #130217",
"%  c #150315",
"&  c #180017",
"*  c #190216",
"=  c #1C0317",
"-  c #180616",
";  c #1C0417",
":  c #130218",
">  c #170318",
",  c #170319",
"<  c #17071C",
"1  c #180218",
"2  c #1A0318",
"3  c #1B0319",
"4  c #1A0418",
"5  c #1A0419",
"6  c #1C051A",
"7  c #1F071B",
"8  c #19051C",
"9  c #1F061C",
"0  c #180A1F",
"q  c #200517",
"w  c #290717",
"e  c #220B14",
"r  c #26051B",
"t  c #23071C",
"y  c #270A1C",
"u  c #26081E",
"i  c #2F0F1B",
"p  c #2A0B1F",
"a  c #35081A",
"s  c #320A1F",
"d  c #3C091A",
"f  c #390C1B",
"g  c #3A0C1B",
"h  c #331114",
"j  c #3E1C11",
"k  c #210B20",
"l  c #240C21",
"z  c #2D0A21",
"x  c #2F0B22",
"c  c #320B22",
"v  c #310C21",
"b  c #340D24",
"n  c #291A27",
"m  c #26172A",
"M  c #26192A",
"N  c #361627",
"B  c #3A1224",
"V  c #381729",
"C  c #312133",
"Z  c #332336",
"A  c #342435",
"S  c #332639",
"D  c #400F1C",
"F  c #4A1C11",
"G  c #40131E",
"H  c #5C141E",
"J  c #5F181E",
"K  c #651A19",
"L  c #711E1A",
"P  c #592E1E",
"I  c #59311F",
"U  c #642C0E",
"Y  c #6B320E",
"T  c #7B3D0C",
"R  c #6F2013",
"E  c #7A2412",
"W  c #4F1F21",
"Q  c #48142B",
"!  c #4F192A",
"~  c #511622",
"^  c #5F1620",
"/  c #511F25",
"(  c #5C1B27",
")  c #5F1C27",
"_  c #5D1C28",
"`  c #5B1C2E",
"'  c #651721",
"]  c #661721",
"[  c #691921",
"{  c #691E21",
"}  c #472521",
"|  c #552026",
" . c #583427",
".. c #483036",
"X. c #533C3E",
"o. c #64282B",
"O. c #702D2B",
"+. c #722A2C",
"@. c #7A352A",
"#. c #7D4916",
"$. c #7A5723",
"%. c #7C5E26",
"&. c #794A36",
"*. c #3B3146",
"=. c #3D3146",
"-. c #5E4344",
";. c #4F4350",
":. c #514451",
">. c #604543",
",. c #6C585A",
"<. c #7E6958",
"1. c #7F6765",
"2. c #84271F",
"3. c #8E271C",
"4. c #912E17",
"5. c #843015",
"6. c #882323",
"7. c #882224",
"8. c #882225",
"9. c #902423",
"0. c #902624",
"q. c #9B2F21",
"w. c #9A3120",
"e. c #B53325",
"r. c #B93426",
"t. c #BD3824",
"y. c #CC3A28",
"u. c #A05508",
"i. c #9D4A27",
"p. c #9C4729",
"a. c #954C2C",
"s. c #88512C",
"d. c #934931",
"f. c #9F4A34",
"g. c #BF4529",
"h. c #AA572F",
"j. c #BC5F2C",
"k. c #A35832",
"l. c #AA5F31",
"z. c #AB5E34",
"x. c #91612D",
"c. c #B36631",
"v. c #D44B13",
"b. c #D54F1F",
"n. c #CD5711",
"m. c #DF5613",
"M. c #D35418",
"N. c #F05913",
"B. c #F35E11",
"V. c #D96809",
"C. c #F46C06",
"Z. c #F36F0C",
"A. c #F5740A",
"S. c #F5700E",
"D. c #E46410",
"F. c #EE6F17",
"G. c #F37E18",
"H. c #F27F19",
"J. c #C44520",
"K. c #D75926",
"L. c #D8682C",
"P. c #92625A",
"I. c #876F6B",
"U. c #957F6E",
"Y. c #FD8D09",
"T. c #F9891D",
"R. c #FF9F10",
"E. c #FF971E",
"W. c #F89D1E",
"Q. c #FFA514",
"!. c #FFA616",
"~. c #FFAD1F",
"^. c #F1962F",
"/. c #FCA023",
"(. c #FFB123",
"). c #FFB628",
"_. c #FFBF29",
"`. c #FFBE2A",
"'. c #FFAA31",
"]. c #FFAE36",
"[. c #FFC42F",
"{. c #FFCC3F",
"}. c #FFCE3E",
"|. c #FFD53D",
" X c #99806D",
".X c #A0836E",
"XX c #B0806B",
"oX c #B68B6B",
"OX c #A18B70",
"+X c #A39375",
"@X c #B7A17E",
"#X c #ED8B45",
"$X c #FBB77A",
"%X c #FFD243",
"&X c #FFD547",
"*X c #FFE27E",
"=X c #AE9C8A",
"-X c #BAAE84",
";X c #B9B3A0",
":X c #BAB2A1",
">X c #BCB7A8",
",X c #BFBCAB",
"<X c #C0B796",
"1X c #C1BFB7",
"2X c #E8CB9E",
"3X c #FFD690",
"4X c #FFE182",
"5X c #FFE48A",
"6X c #FEE29A",
"7X c #FEE699",
"8X c #FFDFA1",
"9X c #FEEAAC",
"0X c #FEEAAD",
"qX c #FFEDAD",
"wX c #FEE7B7",
"eX c #FEEFBE",
"rX c #FEF1CA",
"tX c #FDF3DC",
"yX c #FEF6E7",
"uX c #FEF9EB",
"iX c #FEF9ED",
"pX c #FEF9EF",
/* pixels */
"                                                                                                    ",
"                                                                                                    ",
"                                                                                                    ",
"                                                                                                    ",
"                                                                                                    ",
"                                                                                                    ",
"                                                                                                    ",
"                                                                                                    ",
"                                                          X                                         ",
"                                                    C.    [                                         ",
"                                                    F   g 7.                                        ",
"                                                        K 7.                                        ",
"                                                T e   J m.0.                                        ",
"                                              q * * H M.B.7.  U                                     ",
"                                          O ' r.g.J.b.S.v.w                                         ",
"                                        % ^ y.H.`.(.~.S.2.O u.j                                     ",
"                                        ; e.G.[.4X&XW.4.=                                           ",
"                                        h V.!.%XrX3XF.n.w.=                                         ",
"                                      ' D.R.{.qXwXE.Y.A.q.                                          ",
"                                      L T.{.9XiX6X).[.K.a                                           ",
"                                      E '.qXyXyXiXeX*XL.d                                           ",
"                                      R ^.9X].7XiXtX$XN.9.                                          ",
"                                        5.W.R.|.5X#Xt.3.g                                           ",
"                                        * Y #.%.$.{ g X                                             ",
"                                      -.@X:X,X>X:X-XOX..                                            ",
"                                      C :. X<X=X.X+X;.M                                             ",
"                                        u y / B | s t 9                                             ",
"                                        ! p.l.O.@.k.` z                                             ",
"                                        7 | c.s.a.i.p 5                                             ",
"                                          c q &.x.i x                                               ",
"                                          n <.X.-.A O                                               ",
"                                          M  XoX1.=.:                                               ",
"                                            k N l ,                                                 ",
"                                            } d.) 5                                                 ",
"                                            I h.( 5                                                 ",
"                                            P j.g :                                                 ",
"                                             .z.o.2                                                 ",
"                                            c +.~ ,                                                 ",
"                                            V f.o.8                                                 ",
"                                          S 1X2XI.*.                                                ",
"                                          0 ,.XXP.A O                                               ",
"                                            5 Q b %                                                 ",
"                                              6 ,                                                   ",
"                                                                                                    ",
"                                                                                                    ",
"                                                                                                    ",
"                                                                                                    ",
"                                                                                                    ",
"                                                                                                    ",
"                                                                                                    "
};
