/* XPM */
static char *ghost_idle__2_1704809749[] = {
/* columns rows colors chars-per-pixel */
"50 50 112 2 ",
"   c None",
".  c #0F0D1E",
"X  c #190613",
"o  c #150E1E",
"O  c #180D1A",
"+  c #17111F",
"@  c #18121F",
"#  c #161221",
"$  c #1A1422",
"%  c #1E1827",
"&  c #151C2C",
"*  c #1F1929",
"=  c #261620",
"-  c #291520",
";  c #261B25",
":  c #231C2D",
">  c #2C1F2C",
",  c #361E21",
"<  c #3D1F23",
"1  c #251E30",
"2  c #162334",
"3  c #192435",
"4  c #152638",
"5  c #14293C",
"6  c #192D3E",
"7  c #2C202F",
"8  c #302326",
"9  c #3D2222",
"0  c #33232F",
"q  c #3A252D",
"w  c #3B2B2A",
"e  c #242434",
"r  c #2E2432",
"t  c #60231F",
"y  c #422623",
"u  c #4E2922",
"i  c #552020",
"p  c #4E392F",
"a  c #442D30",
"s  c #563D31",
"d  c #682D26",
"f  c #643223",
"g  c #6C3523",
"h  c #663A2C",
"j  c #723426",
"k  c #793D26",
"l  c #7F4329",
"z  c #644433",
"x  c #6F4C35",
"c  c #0E3447",
"v  c #09374C",
"b  c #1E3143",
"n  c #113E53",
"m  c #203247",
"M  c #273847",
"N  c #283C4B",
"B  c #0C445B",
"V  c #1C4357",
"C  c #10455C",
"Z  c #224355",
"A  c #124C64",
"S  c #07526A",
"D  c #0D546D",
"F  c #0B5A74",
"G  c #0C5D79",
"H  c #265A6D",
"J  c #02647E",
"K  c #6D5040",
"L  c #834127",
"P  c #894B2D",
"I  c #914C2A",
"U  c #8B4E30",
"Y  c #8D5D3C",
"T  c #9C5A33",
"R  c #AA6F41",
"E  c #B47E4A",
"W  c #C3854C",
"Q  c #C88B50",
"!  c #CE9152",
"~  c #D19453",
"^  c #0A6480",
"/  c #086B85",
"(  c #096F8D",
")  c #116D8C",
"_  c #0D7492",
"`  c #017C9C",
"'  c #037EA0",
"]  c #0688A8",
"[  c #0888AA",
"{  c #088EB1",
"}  c #0492B6",
"|  c #0197BB",
" . c #2894AC",
".. c #2195B2",
"X. c #039DC3",
"o. c #03A4CB",
"O. c #01ABD4",
"+. c #0BAED3",
"@. c #0BB1D7",
"#. c #01B0D9",
"$. c #09BAE2",
"%. c #47AAC0",
"&. c #45B6CE",
"*. c #51BACF",
"=. c #1DC2E6",
"-. c #3BC5E1",
";. c #34CAE9",
":. c #49C2DA",
">. c #50C7DE",
",. c #4CCCE5",
"<. c #57CEE5",
"1. c #59DAF2",
/* pixels */
"                                                                                                    ",
"                                                                                                    ",
"                                                1 1 1 1 1                                           ",
"                                              1 1 1 1 1 1 1 1                                       ",
"                                            1 1 1 : % $ % $ : 1                                     ",
"                                          1 1 1 1 % O O O O : 1 1                                   ",
"                                          * % * % c F G G B 2 : 1                                   ",
"                                        $ @ @ # c ` O.=.$.} S 2 >                                   ",
"                                      @ @ @ @ 3 ` #.=.1.;.$.| A :                                   ",
"                                    $ @ @ @ % m O.{ %.,.*...o.) : 1                                 ",
"                                    # # $ $ : b X.& o } B X ( ) ; 1                                 ",
"                                    $ @ @ % : 4 | b e [ C * _ ^ $ 1                                 ",
"                                  1 * $ $ 1 : & / >.<.Z ` -. .c % 1                                 ",
"                                  1 % @ % 1 : & J +.@.o.O.] B # = e                                 ",
"                                  1 % # % 1 : : 6 :.V &.H ` D O * 1 1                               ",
"                                1 1 : % = 1 e : $ N $ M * 5 2 = : 1 :                               ",
"                                1 1 1 : % % 1 : : O o o o o $ : : % 1                               ",
"                                1 1 1 1 : # % 1 1 * : $ $ % = : $ $ 1                               ",
"                              1 1 1 1 1 : % # % % 1 1 $ # : % # $ : 1                               ",
"                              1 1 1 1 1 1 : % $ $ 1 1 % $ * % $ : : : :                             ",
"                            1 1 : * * : : 1 : # $ 1 1 1 $ : $ % 1 % $ : 1                           ",
"                            1 1 * $ $ $ $ : % $ $ 1 1 1 $ : : % % # # $ 1                           ",
"                          1 1 1 1 1 : % # $ $ $ $ : 1 1 % % 1 % $ $ $ % : 1                         ",
"                        1 : 1 1 1 $ $ $ % 1 1 : $ $ : : : % : 0 > % % : $ :                         ",
"                        : 1 1 1 % $ * * $ : $ : : > r $ : $ u L h r : $ $ :                         ",
"                        $ 1 1 1 $ * 1 * @ $ $ $ ; k L q 1 $ $ x Q R f $ :                           ",
"                          1 1 : : 1 1 * @ - i l E W W P q $ # 9 d g g $ 1                           ",
"                          $ : e 1 1 1 % @ - t I Q ~ ! W U , . z W Y = $                             ",
"                          @ $ : 1 1 1 * @ @ - y T ! ~ x a r $ 7 p w # #                             ",
"                            $ : 1 1 1 * @ @ @ $ 9 s s : * * $ @ o o # #                             ",
"                            $ $ : 1 1 * # $ $ # # . $ * 1 $ @ @ $ @ @ @                             ",
"                            # # : 1 1 * # $ % % # $ : : : % @ @ @ @ $ $                             ",
"                            $ @ : : 1 : @ $ 1 1 $ # : $ : $ $ $ @ @ $ @                             ",
"                            $ @ : : : * # $ : * $ $ 1 $ : $ @ # @ # @ @                             ",
"                            @ @ : $ % : $ % : $ : $ : $ : % @ o @ @ #                               ",
"                            @ $   o % % @ $ : $ 1 $ 1 $ : $ $ $ # $                                 ",
"                            $ @   $ @ $ @ % : $ : $ 1 $ # $ : % @ @                                 ",
"                            # @   # # @ @ % : $ : $ 1 $ $ o % : o $                                 ",
"                              $   $ # @ @ % : $ : $ : $ @ @ : % $ $                                 ",
"                              @   $ @   $ $ : $ 1 $ : $ # @ % % $ :                                 ",
"                              $         $ $   $ : $ : $ * $ % $ $                                   ",
"                                        $ :   $ 1 # 1 $ : %                                         ",
"                                        $ %     : $ : $ : :                                         ",
"                                        $ #     1 $ : $ : 1                                         ",
"                                        * $     : $ : % :                                           ",
"                                                  # :                                               ",
"                                                  $                                                 ",
"                                                  1                                                 ",
"                                                                                                    ",
"                                                                                                    "
};
