/* XPM */
static char *ghost_idle__1_1704809748[] = {
/* columns rows colors chars-per-pixel */
"50 50 238 2 ",
"   c None",
".  c #0F0D1E",
"X  c #190613",
"o  c #130E1F",
"O  c #130F1F",
"+  c #170E1C",
"@  c #180C19",
"#  c #190C19",
"$  c #180D1A",
"%  c #190D1A",
"&  c #180F1D",
"*  c #15101F",
"=  c #14111F",
"-  c #16101E",
";  c #17101E",
":  c #17111E",
">  c #16101F",
",  c #16111F",
"<  c #17111F",
"1  c #17121F",
"2  c #18111F",
"3  c #19111F",
"4  c #18121F",
"5  c #151020",
"6  c #151120",
"7  c #161120",
"8  c #171321",
"9  c #161523",
"0  c #181220",
"q  c #181221",
"w  c #191321",
"e  c #1A1320",
"r  c #1B1320",
"t  c #191322",
"y  c #1A1322",
"u  c #1C1320",
"i  c #1E1221",
"p  c #1A1422",
"a  c #1A1423",
"s  c #1B1423",
"d  c #1A1523",
"f  c #1B1523",
"g  c #1D1522",
"h  c #1E1423",
"j  c #191425",
"k  c #1B1524",
"l  c #1B1725",
"z  c #191426",
"x  c #191526",
"c  c #1B1626",
"v  c #1C1524",
"b  c #1D1524",
"n  c #1C1525",
"m  c #1D1525",
"M  c #1F1524",
"N  c #1D1624",
"B  c #1C1625",
"V  c #1C1626",
"C  c #1D1626",
"Z  c #1D1726",
"A  c #1D1727",
"S  c #1E1727",
"D  c #1E1827",
"F  c #151C2C",
"G  c #151D2C",
"H  c #161C2C",
"J  c #1E1828",
"K  c #1F1828",
"L  c #1E1829",
"P  c #1F1829",
"I  c #1F1929",
"U  c #1F192A",
"Y  c #1E1D2B",
"T  c #1F1A2D",
"R  c #1E1E2C",
"E  c #261420",
"W  c #251720",
"Q  c #281420",
"!  c #2A1620",
"~  c #271B23",
"^  c #241B27",
"/  c #201828",
"(  c #201929",
")  c #231929",
"_  c #20192A",
"`  c #201A2A",
"'  c #211A2A",
"]  c #201A2B",
"[  c #211A2B",
"{  c #211B2B",
"}  c #231A2B",
"|  c #251829",
" . c #261B28",
".. c #26192A",
"X. c #27192B",
"o. c #271D2B",
"O. c #211B2C",
"+. c #221B2C",
"@. c #231B2C",
"#. c #221B2D",
"$. c #211C2D",
"%. c #221C2D",
"&. c #231C2D",
"*. c #231C2E",
"=. c #231D2E",
"-. c #251C2E",
";. c #241D2E",
":. c #241D2F",
">. c #261D2F",
",. c #251E2F",
"<. c #2C1F2C",
"1. c #361E21",
"2. c #3D1F23",
"3. c #241D30",
"4. c #241E30",
"5. c #251E30",
"6. c #251E31",
"7. c #251F31",
"8. c #261E31",
"9. c #261F31",
"0. c #172233",
"q. c #152334",
"w. c #182334",
"e. c #1A2435",
"r. c #152638",
"t. c #14293C",
"y. c #192D3E",
"u. c #2B202E",
"i. c #2C202F",
"p. c #302326",
"a. c #3D2222",
"s. c #33232F",
"d. c #39252D",
"f. c #3B252D",
"g. c #3B2B2A",
"h. c #202736",
"j. c #2E2432",
"k. c #60231F",
"l. c #422623",
"z. c #4E2922",
"x. c #552020",
"c. c #4E392F",
"v. c #442D30",
"b. c #553C30",
"n. c #573E31",
"m. c #682D26",
"M. c #643223",
"N. c #6C3523",
"B. c #663A2C",
"V. c #723426",
"C. c #793D26",
"Z. c #7F4329",
"A. c #644433",
"S. c #6F4C35",
"D. c #0D3447",
"F. c #0E3447",
"G. c #09374C",
"H. c #1D3142",
"J. c #1E3044",
"K. c #113E52",
"L. c #113E53",
"P. c #203247",
"I. c #273847",
"U. c #283C4B",
"Y. c #0C445B",
"T. c #1C4357",
"R. c #10455C",
"E. c #224355",
"W. c #124C64",
"Q. c #07526A",
"!. c #0D546D",
"~. c #0C5871",
"^. c #0A5C77",
"/. c #0C5D79",
"(. c #265A6D",
"). c #02647E",
"_. c #6D5040",
"`. c #804027",
"'. c #864226",
"]. c #894B2D",
"[. c #914C2A",
"{. c #8B4E30",
"}. c #8D5D3C",
"|. c #9C5A33",
" X c #AA6F41",
".X c #B47E4A",
"XX c #C0814B",
"oX c #C3864C",
"OX c #C4864C",
"+X c #C6874C",
"@X c #C88B50",
"#X c #CD9051",
"$X c #CE9051",
"%X c #CE9252",
"&X c #CE9253",
"*X c #D19453",
"=X c #0A6480",
"-X c #086B85",
";X c #096F8D",
":X c #126B8A",
">X c #106E8D",
",X c #0D7492",
"<X c #047999",
"1X c #007D9C",
"2X c #007E9E",
"3X c #037EA0",
"4X c #0688A8",
"5X c #0888AA",
"6X c #088EB1",
"7X c #0492B6",
"8X c #0096BA",
"9X c #0097BC",
"0X c #0397BC",
"qX c #2894AC",
"wX c #2195B2",
"eX c #039DC3",
"rX c #00A3CB",
"tX c #06A2C8",
"yX c #02A7CF",
"uX c #01A9D1",
"iX c #00ADD6",
"pX c #0BAED3",
"aX c #0BB1D7",
"sX c #01B0D9",
"dX c #08B9E2",
"fX c #09BAE2",
"gX c #47AAC0",
"hX c #45B6CE",
"jX c #51BACF",
"kX c #1CC0E4",
"lX c #1DC3E7",
"zX c #3BC5E1",
"xX c #34CAE9",
"cX c #49C2DA",
"vX c #50C7DE",
"bX c #4CCCE5",
"nX c #57CEE5",
"mX c #59DAF2",
/* pixels */
"                                                                                                    ",
"                                                                                                    ",
"                                          5.5.5.5.5.                                                ",
"                                      5.5.5.5.5.5.5.5.                                              ",
"                                    5.$.c B B K 5.5.5.5.                                            ",
"                                  5.5.) @ @ @ @ B 5.5.3.j.                                          ",
"                                  5.) 0.Y./.^.~.F.K D ) K                                           ",
"                                  >.e.Q.8XdXlXiX2XF.9 2 q q                                         ",
"                                  X.W.8XdXxXmXkXsX2Xw.2 q q 2                                       ",
"                                5.} :XyXwXjXbXgX6XyXP.B q 2 2 q                                     ",
"                                5.| >X;XX L.7X& H eXJ.-.B 2 q 2                                     ",
"                                3.E =X,XR R.5Xh.H.8Xr.} B q 2 g                                     ",
"                                5.B G.qXzX2XE.nXvX-XG ) 5.c O B 5.                                  ",
"                                5.K 7 K.4XuXtXaXpX).G $.j.c q K 5.                                  ",
"                              5.5.B @ !.<X(.hXT.cXy.T 5.5.B : K j.                                  ",
"                              5.5.>.B 0.t.Y I.c U.c $.3.j.c B >.5.5.                                ",
"                              3.K $.>.g 2 2 O : O ) 5.5.K K $.j.5.5.                                ",
"                              3.c a B K B 7 u ) ) >.5.K q ) 3.3.5.5.                                ",
"                              j.) a : K $.: a 3.3.K K q B -.3.3.5.5.5.                              ",
"                            5.) $.$.q K ) 9 K 3.$.a : B $.>.h.3.5.5.5.                              ",
"                          5.{ a K 3.K c $.c j.3.>.q q $.5.) K ) ) $.>.5.                            ",
"                          5.a 2 7 B K T ) a 5.5.>.q q ) -.c q c B K 3.5.                            ",
"                        >.$.B q a q K 3.K D >.5.$.q a a B q K $.$.5.5.5.5.                          ",
"                        >.a $.B ) j.s. .c 5.$.$.a a $.>.5.B q q c >.5.5.5.5.                        ",
"                        >.a 2  .j.B.'.z.c $.g i.u.>.$.g ) c K K 7 D >.R 3.3.                        ",
"                          $.a M. X@XS.: c 5.d.`.C.~ W 3 a 7 c j.) B 3.j.3.q                         ",
"                          5.c N.V.m.a.5 c d.].+XoX.XZ.x.E 2 K h.>.$.5.>.5.                          ",
"                            q W }.XXA.o 1.].+X%X%X%X].k.Q O / 3.5.5.5.$.c                           ",
"                            9 7 g.c.p.c i.v._.*X$X|.l.! u 2 K 5.5.5.>.c q                           ",
"                            2 2 o o : a K T } n.b.a.a 7 q 2 K 5.5.5.$.:                             ",
"                            a : q q 7 : B 5.K c o : : 2 q 2 K 5.5.$.B 2                             ",
"                            2 q 2 q 7 : B $.K >.q 7 D D a 7 T 7.>.$.: q                             ",
"                            q 2 : 2 a 4 D { a $.q q >.5.B : K 5.j.) 7 7                             ",
"                            2 q a 2 : : D $.a $.q B ) 5.B : K $.$.T q q                             ",
"                              q 2 2 1 : B $.a >.a $.a $.c : ) D c ) q q                             ",
"                                9 : a a B ) a $.a >.a $.c : K D :   q 2                             ",
"                                a : K { q q s -.q >.a { B 4 a 2 q   : a                             ",
"                                2 2 K K 2 q s $.a >.a { B 4 2 q q   : a                             ",
"                                9 2 K K 2 2 s -.: >.a >.B 2 q 2 q   q                               ",
"                                3.l K ) 2 q s $.a $.a { B q   q 2   2                               ",
"                                  a g a B ) B -.a >.a   a 2         q                               ",
"                                        c ) q $.a $.a   { c                                         ",
"                                        $.$.a >.q $.    D a                                         ",
"                                        5.$.a $.a >.    : g                                         ",
"                                          $.B >.a $.    q K                                         ",
"                                              $.:                                                   ",
"                                                B                                                   ",
"                                                5.                                                  ",
"                                                                                                    ",
"                                                                                                    "
};
