/* XPM */
static char *e11703951071[] = {
/* columns rows colors chars-per-pixel */
"50 50 172 2 ",
"   c None",
".  c #010101",
"X  c #0D0C0E",
"o  c #120D0E",
"O  c #1E0E0D",
"+  c #0E0E10",
"@  c #100E10",
"#  c #0F1113",
"$  c #141214",
"%  c #191719",
"&  c #1A181A",
"*  c #1A1415",
"=  c #251414",
"-  c #2A1615",
";  c #2E1B1A",
":  c #351E1C",
">  c #3A1D1B",
",  c #321817",
"<  c #3F211F",
"1  c #33201E",
"2  c #1E2022",
"3  c #252426",
"4  c #272829",
"5  c #292829",
"6  c #392625",
"7  c #2E2E30",
"8  c #343536",
"9  c #37393A",
"0  c #393536",
"q  c #41221F",
"w  c #432422",
"e  c #482623",
"r  c #472927",
"t  c #4B2925",
"y  c #4B2C2A",
"u  c #462E2C",
"i  c #532B26",
"p  c #552E2A",
"a  c #592E2A",
"s  c #53302D",
"d  c #5D322E",
"f  c #5A3432",
"g  c #5D3C3D",
"h  c #443939",
"j  c #61342F",
"k  c #633631",
"l  c #6B3732",
"z  c #663833",
"x  c #6C3A35",
"c  c #6E3F3A",
"v  c #703C37",
"b  c #713D38",
"n  c #6F403C",
"m  c #71413C",
"M  c #533F46",
"N  c #434445",
"B  c #444648",
"V  c #47494A",
"C  c #4C4C4D",
"Z  c #5A4649",
"A  c #4E4753",
"S  c #564853",
"D  c #5D4B54",
"F  c #5C5B5C",
"G  c #60464C",
"H  c #61494F",
"J  c #774C47",
"K  c #72514D",
"L  c #7A514D",
"P  c #644C55",
"I  c #624F59",
"U  c #63505A",
"Y  c #6D555E",
"T  c #745A5F",
"R  c #75575A",
"E  c #4B576E",
"W  c #4A586F",
"Q  c #5A5566",
"!  c #595A6E",
"~  c #4C5971",
"^  c #525E74",
"/  c #6E5660",
"(  c #6F5862",
")  c #725A62",
"_  c #7F5F67",
"`  c #615E70",
"'  c #5F6162",
"]  c #546076",
"[  c #53607A",
"{  c #5B677F",
"}  c #5B687F",
"|  c #6B6B6C",
" . c #656667",
".. c #7D6362",
"X. c #7F6B69",
"o. c #666072",
"O. c #6F6F70",
"+. c #727272",
"@. c #7A7A7B",
"#. c #78727E",
"$. c #81453F",
"%. c #884740",
"&. c #864942",
"*. c #8B4B44",
"=. c #97534B",
"-. c #9C554D",
";. c #825F5B",
":. c #80666B",
">. c #826E6B",
",. c #8A656D",
"<. c #84706E",
"1. c #8B7674",
"2. c #80787F",
"3. c #907C7A",
"4. c #94817F",
"5. c #5C6781",
"6. c #5B6985",
"7. c #5A6B88",
"8. c #616E84",
"9. c #667287",
"0. c #65718D",
"q. c #657593",
"w. c #6E7E9D",
"e. c #6D7793",
"r. c #707D9B",
"t. c #6F7FA0",
"y. c #7D869B",
"u. c #6F80A1",
"i. c #7081A1",
"p. c #7A85A1",
"a. c #7B8AA6",
"s. c #7B8BA9",
"d. c #858585",
"f. c #8C8D8D",
"g. c #978583",
"h. c #988786",
"j. c #808A9E",
"k. c #858B97",
"l. c #939394",
"z. c #9C9D9D",
"x. c #9E9291",
"c. c #A19796",
"v. c #A39A99",
"b. c #808CA1",
"n. c #828FA9",
"m. c #8490A7",
"M. c #8593AD",
"N. c #8895AF",
"B. c #8E99AE",
"V. c #9398A1",
"C. c #8795B0",
"Z. c #8A97B1",
"A. c #8E9BB3",
"S. c #919EB6",
"D. c #9AA2B7",
"F. c #95A1B8",
"G. c #9BA6BC",
"H. c #9DA8BE",
"J. c #A3A3A3",
"K. c #A8A7A7",
"L. c #ADADAD",
"P. c #AEB0B0",
"I. c #B2B2B2",
"U. c #B9B9B8",
"Y. c #9EABC1",
"T. c #A2ACC1",
"R. c #CCCCCC",
"E. c #C2C2C2",
"W. c #D5D5D5",
"Q. c #DBDBDB",
"!. c #EDEDED",
"~. c #F4F4F4",
/* pixels */
"                                                                                                    ",
"                                                                                                    ",
"                                                                                                    ",
"                                          N.N.N.N.N.N.N.N.                                          ",
"                                        N.N.N.N.N.N.N.N.N.N.                                        ",
"                                        N.N.N.N.N.N.N.N.C.N.                                        ",
"                                      } n.N.N.N.N.N.N.N.N.m.5.                                      ",
"                    N.N.N.N.N.C.Z.M.} ^ p.A.N.Z.Z.N.Z.Z.Z.p.^ } m.Z.N.C.N.N.N.C.                    ",
"                    Z.C.N.N.N.N.C.M.} ^ N.Y.G.G.H.H.G.G.Y.N.] } M.Z.C.N.N.N.C.Z.                    ",
"                    M.N.N.N.N.N.Z.m.{ ] N.Y.G.G.H.G.G.G.Y.N.^ } m.Z.N.C.N.N.Z.m.                    ",
"N.N.N.N.C.C.C.m.5.^ p.A.N.N.C.C.Z.M.5.~ e.s.a.a.a.a.a.p.a.r.W } M.C.N.N.N.N.Z.p.^ 5.m.A.N.N.N.N.C.C.",
"C.N.N.N.C.C.Z.M.} ^ m.D.F.F.F.F.D.S.6.W q.y.w.w.w.w.w.w.w.q.W 8.A.G.F.F.F.F.G.m.^ } M.C.N.N.N.N.C.C.",
"N.N.N.N.N.N.A.m.} ] B.T.T.T.Y.Y.T.G.9.W q.i.u.u.t.t.u.w.i.q.W 9.H.T.T.Y.T.T.T.N.] } m.Z.N.N.N.N.N.N.",
"M.N.M.N.M.N.C.n.{ ^ p.C.N.C.M.M.C.M.5.W q.u.u.u.t.y.w.u.i.q.E } s.M.N.N.N.C.C.y.~ 5.M.Z.M.M.N.N.N.N.",
"A.A.A.S.A.S.S.B.5.W q.i.w.w.w.w.t.w.[ ~ q.u.u.u.t.t.i.u.i.q.~ [ w.w.w.w.w.w.u.q.E 8.N.S.S.S.S.S.A.S.",
"T.T.T.H.H.T.T.G.9.W q.r.w.t.t.t.t.w.^ W q.u.t.t.t.t.u.u.i.q.~ [ w.u.t.w.t.t.u.q.E 9.H.T.T.H.H.T.T.H.",
"F.F.A.F.S.S.F.C.8.~ q.i.i.u.i.u.u.t.! A Q ` ` o.o.o.` o.` Q A ! w.i.i.i.u.i.i.q.~ 8.A.S.S.S.S.S.S.S.",
"i.i.i.i.i.i.i.w.[ E 0.w.w.w.e.r.w.e.D p r y f f f f f f p r p I e.w.w.e.w.w.w.0.E ^ i.i.i.t.i.i.i.i.",
"w.w.w.w.u.w.w.w.Q Z D P P S S I U P M a q e a a a a a a q q i M P I D S S I I P M Q w.t.t.t.t.t.w.w.",
"u.u.w.u.w.u.u.w.I i a d s e q p d a d d t i a d d d d a i t a j d d p w e p a a a I w.i.t.w.w.t.t.i.",
"u.u.w.u.y.t.u.w.I a a a s e e j l z z z d d z x x z l z j d k z z x j e t p a a a I r.t.t.t.t.t.i.t.",
"6.6.6.6.6.6.7.5.D d j d d p i z b x b x k k v b b b b v z j x b x b z a i j k k k H 5.7.5.7.7.5.6.6.",
"E E W E W E E E H x v b n k d x x x v z d d z z z z z z d d z v x v l f k z x x x G E W E E E E E E ",
"j.j.j.j.j.j.j.j.2.>.:.1.3.K d l v x x x k t ; - - - = = O , j b x x x k k x x x x T k.y.b.b.j.j.j.j.",
"H.H.H.H.H.Y.H.G.z.f.l.J.J...d l v x v l i 1 & 2 5 4 7 9 9 0 p k x v z d k x x v x X.D.Y.G.Y.G.Y.H.H.",
"a.a.a.a.a.a.a.a.k.l.J.P.K...j z x x n d = 3 C +.f.f.K.R.Q.L.0 , x v x j k x x x z ) p.s.a.a.a.a.a.a.",
"w.w.w.w.w.w.t.w.#.>.4.g.3.K d l v x a 6 5 V @.@.+.+.d.J.E.I.#.C y d l j k c x v x / e.t.w.t.w.w.t.w.",
"t.w.t.t.w.w.w.w.T n n m n z f z v l ; % V @.z.C + + + % h d.Q.z.& w z j k z x x x / w.u.w.t.i.r.t.w.",
"u.r.t.t.t.w.u.w.Y l l l x k d z n l - $ B d.V.V . . . . 5 @.!.J.X , x f k x x l x / r.t.r.t.t.t.w.t.",
"t.t.t.t.t.t.t.w.T x x x x k d x l s ; 4 F f.J.U 4 3 4 5 C f.W.L.M u d d j v J J b / r.t.t.t.t.t.t.t.",
"i.i.i.t.t.i.u.w.Y x x x x d k x r = 7 F f.K.K.z.f.f.f.f.l.J.U.R.E.F = t j b 1.g.J Y r.t.t.t.t.i.i.u.",
"6.6.6.6.6.6.6.{ P x x x n k d x q X 9 +.J.I.L.P.I.U.U.U.I.P.K.W.~.| o t k b h.v.L P 5.7.7.6.6.6.6.6.",
"E E E E W E ~ E G l x x x j j x w o 9 O.z.P.L.L.L.K.J.J.K.L.L.W.!.| o q j n 4.c.&.Z E E E E E E E E ",
"y.b.j.j.b.y.b.y.T v v x x z d x w + 8 | z.P.L.I.l.F N C d.L.L.W.!.| o t j m g.v.L T j.b.j.j.j.j.b.y.",
"H.H.H.H.Y.G.Y.D.:.v l x x k j x w o 9 | z.P.L.I.f.3 . X | L.L.R.Q.' o q l m g.c.L ..D.Y.H.H.H.H.Y.H.",
"s.a.a.s.a.a.a.p.) l v x x k d x w o 8 O.J.I.L.I.f.3 . + | I.L.U.I.C o i j m g.c.L Y p.s.a.a.a.a.a.a.",
"w.w.w.w.w.w.t.w.Y x x x x k d x w $ 8 | v.P.L.I.f.3 . X | P.P.I.J.N o t l v g.v.L Y w.t.t.w.w.w.t.w.",
"t.w.t.u.t.t.i.e.( x x x x k d x w o 8 | z.I.L.I.f.7 . % O.P.P.I.J.V o i j m 4.x.L P w.u.w.u.w.t.r.t.",
"w.w.t.r.w.t.u.w.Y x x c x k d x w X 9 | J.P.L.P.z.@. .O.l.L.P.I.K.N o q j x ;.;.m Y w.r.w.t.t.w.t.t.",
"i.t.t.t.t.t.u.w.T x x x x k k x w o 8 O.z.I.P.P.I.I.I.P.I.L.P.I.J.V o t z v l l v Y w.i.u.t.t.t.t.t.",
"y.i.i.i.u.w.u.y.Y x x x x k j z w X 8 | J.I.P.L.P.I.I.I.P.P.P.I.J.B o e z x x x l Y w.t.t.t.t.i.t.i.",
"7.6.6.6.7.7.7.5.P l l l l j k x p 1 7 N ' | | | | |  .| | | | |  .h : a k x x x v P 5.7.6.6.6.6.6.6.",
"W W W W W E W E H c c n n z d z x z 1 X o $ $ $ $ $ $ $ $ $ $ $ * r z d k x b x v G E E E E E E E E ",
"y.y.j.j.y.y.j.y.2.>.>.1.3.K j x v x p w > > < q q q < < > : < q w j x k k x x x x T k.j.b.j.j.j.b.y.",
"Y.Y.G.G.G.G.H.G.V.f.l.J.K...d l x x m x j k x v x v v x k k x x x x z k k x x x x X.D.Y.H.H.H.H.H.H.",
"a.a.a.a.a.a.a.a.k.l.J.P.K...d l x x x x j z x v x x n x k j x x x b z k k x x x x ) p.s.a.s.a.a.a.a.",
"w.w.t.t.w.w.u.r.#.<.4.4.3.K d l x x x z d k x x l x x x j j l x x x z k k x x x x / e.t.w.w.w.w.w.w.",
"t.t.w.t.w.u.u.w.) m m m n z d x v v n x k k v v b v n x k j x m b b z k k x b v x / w.t.t.t.w.t.t.t.",
"w.t.t.w.u.w.u.w._ $.$.$.$.v j $.*.$.*.$.j l *.*.$.*.*.$.x z $.*.*.*.&.k z &.*.&.%.:.r.t.t.w.t.w.t.r.",
"t.w.t.w.w.u.u.r.,.-.-.-.-.b l =.-.-.-.=.l m -.-.-.-.-.-.n z *.-.-.-.*.z b -.-.-.-.,.r.t.r.t.t.t.t.t."
};
