/* XPM */
static char *e141703951071[] = {
/* columns rows colors chars-per-pixel */
"50 50 104 2 ",
"   c None",
".  c #40221E",
"X  c #41221F",
"o  c #412320",
"O  c #534751",
"+  c #534752",
"@  c #544854",
"#  c #4B576E",
"$  c #4A576F",
"%  c #4B576F",
"&  c #4B586F",
"*  c #5C5B6E",
"=  c #4B5870",
"-  c #4D5971",
";  c #4F5B72",
":  c #515D73",
">  c #525E74",
",  c #525E75",
"<  c #535F75",
"1  c #546076",
"2  c #526079",
"3  c #55627B",
"4  c #5B677F",
"5  c #5B687F",
"6  c #596782",
"7  c #5B6880",
"8  c #5C6880",
"9  c #5C6980",
"0  c #5F6B82",
"q  c #5B6986",
"w  c #5C6B87",
"e  c #606C82",
"r  c #626E84",
"t  c #667287",
"y  c #647392",
"u  c #657492",
"i  c #657593",
"p  c #667593",
"a  c #6C7A98",
"s  c #6D7A98",
"d  c #6C7B9B",
"f  c #6F7D99",
"g  c #6C7C9B",
"h  c #6C7D9D",
"j  c #6E7D9D",
"k  c #6D7D9E",
"l  c #6D7E9E",
"z  c #6E7E9E",
"x  c #6E7E9F",
"c  c #6F7F9F",
"v  c #707F9E",
"b  c #6F7FA0",
"n  c #78859F",
"m  c #6F80A0",
"M  c #7080A0",
"N  c #7080A1",
"B  c #7181A1",
"V  c #7282A1",
"C  c #7081A2",
"Z  c #7082A3",
"A  c #7383A3",
"S  c #7C88A1",
"D  c #7C89A2",
"F  c #7A89A6",
"G  c #7B8AA7",
"H  c #7C8BA9",
"J  c #808A9E",
"K  c #818EA8",
"L  c #828FAA",
"P  c #8490A7",
"I  c #8390AA",
"U  c #8491AB",
"Y  c #8593AE",
"T  c #8794AE",
"R  c #8A95AB",
"E  c #8895AF",
"W  c #8A97AF",
"Q  c #8E99AE",
"!  c #8795B0",
"~  c #8895B1",
"^  c #8996B0",
"/  c #8A97B0",
"(  c #8A97B1",
")  c #8D99B2",
"_  c #8C99B3",
"`  c #8E9BB3",
"'  c #919CB4",
"]  c #919DB6",
"[  c #919EB6",
"{  c #95A1B8",
"}  c #94A0B9",
"|  c #98A3BB",
" . c #98A4BB",
".. c #9CA6BB",
"X. c #9CA7BC",
"o. c #9CA7BD",
"O. c #9DA8BE",
"+. c gray68",
"@. c #9FAAC0",
"#. c #A0AAC0",
"$. c #A1ABC0",
"%. c #A1ACC1",
"&. c #A4AEC3",
"*. c #A5AFC4",
/* pixels */
"                                                                                                    ",
"                                                                                                    ",
"                                                                                                    ",
"                                          E E E E E E E E                                           ",
"                                        E E E E E E E E E E                                         ",
"                                        E E E E E E E E E E                                         ",
"                                      9 K Y T T T T T T E K 9                                       ",
"                    E E E E E E / Y 5 : D ` / / / / / E ` D : 5 Y / E E E E E E                     ",
"                    / E E E E E / U 4 < R @.o.o.o.o.o.o.@.R > 8 U / / E E E E E                     ",
"                    U E E E E E / U 4 : R @.o.o.o.o.o.o.@.R > 4 U / T ! E E E U                     ",
"E E E E E E ( U 9 > D ( E E ! / / Y 6 ; f H F F F F F F F v ; 6 U / ! ! E E / D 1 5 U ( E E E E E E ",
"E E E E E E ( U 5 > P  .{ { { { | ' r $ y b z z z z k k v y $ r ]  .{ { { { | U : 5 U ( E E E E E E ",
"E E E E E E ( U 4 1 Q &.%.%.$.%.&.o.t % p M M m z b z b v p = t o.&.%.@.%.$.&.Q 1 5 U ( E E E E E E ",
"T T T T T T E U 5 ; A / Y T Y Y T K 8 = p M M M M b v b M p = 8 K ! T Y Y Y / n ; 5 U / T E T T T T ",
"` ` ` ` ` ` ] E 9 $ y M z z z z b h < % p M z M z M b b m p = < d m z z z z M p $ r E ] ' ` ` ` ` ` ",
"$.$.$.$.$.$.&...t ; y M z z b z b h 2 = p M M z M z b b Z p - < d b b z b b z y $ t O.%.%.%.O.%.$.$.",
"] } [ [ [ [ [ ` 9 $ p M z M z M M z 6 $ p M M v b z M z M p ; 6 z v b z M z M p ; r ` ] } ] } ` } ] ",
"M A M M A M A z 3 ; p M M z M z b b                             M z z M z M M p $ 3 M M M M m A M M ",
"m z z z z z z h w                                                                 w z z h z z b m z ",
"m m b b b M b b                                                                     m v b b b v z m ",
"m m m n n b b b                                                                     M M M M M M n b ",
"q q q 6 q q q q                                                                     q q q q q q 6 q ",
"& & % $ # # & &                                                                     % $ # # # # $ $ ",
"J J J n J J J J                                                                     J J J J J J J D ",
"O.O.o.o.o.O.O.O.                                                                    o.o.O.O.o.o.O.O.",
"F F H F H F F H                                                                     H H F F H H F F ",
"v z z z z z z z                                                                     z z z z z z z h ",
"v v b b b z b z                                                                     z b z b z M n h ",
"M z M z z b z b                                                                     z M b z M z b b ",
"b b b b b b b b                                                                     b b b b b b b b ",
"M M M M M M M M                                                                     M M M M M b b b ",
"q q q q q q q q                                                                     q q q q q q q q ",
"$ # # # $ # # #                                                                     & & & $ # # $ # ",
"J J J J J J J J                                                                     J J J J J J J J ",
"O.O.O.O.O.O.o.o.                                                                    O.O.O.O.O.O.o.O.",
"F H F F F F H H                                                                     G G G F F F F H ",
"z z z z z h z z                                                                     z z z h h h z z ",
"b v M z z b b v                                                                     b v n z b b z M ",
"z b z b b z b z                                                                     b z z b b z b z ",
"M b M b b b b b                                                                     b b b b b b b b ",
"M M M M b b b n               +.+.                                +.+.              M M M M M M n z ",
"q q q 9 q q q q               +.                                    +.              q q q q q q q q ",
"& # & & $ $ $ #                                                                     $ # # # # # & & ",
"J J J J J n J J                                                                     J J J J J J J n ",
"O.O.O.O.o.o.O.O.                                                                    o.o.O.O.O.O.o.O.",
"F H F F H F H F                                                                     H H F H F F F H ",
"k b v z z z z d *                                                                 * d z z z z z z z ",
"b v v v b m M s @ X X o o o o o o o o o o o o o o o o o o o o o o o o o o o o X X @ d m z b b v z b ",
"b z v b b z Z d + . X o o o o o o o o o o o o o o o o o o o o o o o o o o o o X . + a Z m m b z b z ",
"z b z b z M M s + X X X o o o o o o o o o o o o o o o o o o o o o o o o o o o X X + a m n z b h z b "
};
