/* XPM */
static char *p11703951071[] = {
/* columns rows colors chars-per-pixel */
"50 50 56 1 ",
"  c None",
". c #010000",
"X c #0B0103",
"o c #0B0C0C",
"O c #150306",
"+ c #180407",
"@ c #1C0408",
"# c #151515",
"$ c #1C1E1E",
"% c #24060B",
"& c #2C060C",
"* c #34080F",
"= c #360810",
"- c #3B0911",
"; c #272727",
": c #272828",
"> c #3B2A2D",
", c #3F2D30",
"< c #333434",
"1 c #3A3A3A",
"2 c #440B14",
"3 c #4B0C16",
"4 c #4F0D18",
"5 c #540D19",
"6 c #5B0E1B",
"7 c #49141D",
"8 c #620F1D",
"9 c #65101E",
"0 c #6A111F",
"q c #7D0F21",
"w c #6D1120",
"e c #741222",
"r c #7B1324",
"t c #464646",
"y c #484848",
"u c gray34",
"i c #676968",
"p c #696A6A",
"a c #831427",
"s c #861628",
"d c #8C172A",
"f c #8F182B",
"g c #91172B",
"h c #94192D",
"j c #9A192F",
"k c #9E1B30",
"l c #A11B31",
"z c #A81C33",
"x c #808282",
"c c #9F8E91",
"v c #A29193",
"b c #B3B4B4",
"n c #C1B0B3",
"m c #C3C3C3",
"M c #DCDDDD",
"N c gray94",
/* pixels */
"                                                  ",
"                                                  ",
"                                                  ",
"                  -======*=**                     ",
"                 235565665656                     ",
"                =5edhhhhhhhjs7-                   ",
"               -5eglzzgwwwwwee8*                  ",
"              24egklkhw*&==&2rr3                  ",
"             -5eflllh8=XoXXXO2es5=                ",
"             -6skllsw*X......+3ew6                ",
"             -6sjlkw&X........+2aa2               ",
"            38eskljw&.........X-ad3*              ",
"           =3rasfkkw&X$1#...o<>-as2               ",
"           =3eaasfj9&Xibt...:bc7qd3               ",
"           =3re8efjw%XxNu...<Mn7qs3               ",
"           =3e62wfh9%Xpmy...:bv7rs2               ",
"           -3r62wfkw&X$1#...o<,2ee2               ",
"            3842wffw4@........X-0e2*              ",
"             --2wrshs4@......X+-w02               ",
"                4wrfdw2@X....+-965                ",
"                =4eeerw2+XXXO-6w5=                ",
"                  225raw2&&&-093                  ",
"                 2558rdfeww9edr62                 ",
"                -6rsrsfkkkkkklhr6-                ",
"               28rgkkhkllzlllllhr92               ",
"              =2wgkzkllllkllllllgw2*              ",
"               2wfklllklllkllllkdw2               ",
"               2ekklklllllllllllkr2               ",
"              -5fllllkllllllklllza2               ",
"             -5ehllkllllllkkllklzs2               ",
"             -6skllllllllkhkklllld83              ",
"             -6shllllklllhshllllkja6-             ",
"             -6ajlllllllljahllllljs6-             ",
"             -6ajllllllljdeajllljha6-             ",
"             -6ajkkklkllg048djljdaa6-             ",
"            36wadjljhjjhs028agjldaa6-             ",
"           =3raardjgdjgaq8-5radjdaa6-             ",
"           =3eaaaashhdsr8=O&5esdaaa6-             ",
"           =3rewraadgsr8=O.@2eare0a6-             ",
"           =3e82earaaa8-O..@2ear54e6-             ",
"            2522ee6eaa8*X..X%30re853              ",
"             -*286-6ee6*O...X&5we92               ",
"              --22 2222-   .X&2222                ",
"               =-  +@@%     X+%**                 ",
"                   ....      ..                   ",
"                     ..      ..                   ",
"                     ..      ..                   ",
"                     ..      ..                   ",
"                                                  ",
"                                                  "
};
