/* XPM */
static char *p111703951071[] = {
/* columns rows colors chars-per-pixel */
"50 50 56 1 ",
"  c None",
". c #010000",
"X c #0B0103",
"o c #0B0C0C",
"O c #150306",
"+ c #180407",
"@ c #1C0408",
"# c #151515",
"$ c #1C1E1E",
"% c #24060B",
"& c #2C060C",
"* c #34080F",
"= c #360810",
"- c #3B0911",
"; c #272727",
": c #272828",
"> c #3B2A2D",
", c #3F2D30",
"< c #333434",
"1 c #3A3A3A",
"2 c #440B14",
"3 c #4B0C16",
"4 c #4F0D18",
"5 c #540D19",
"6 c #5B0E1B",
"7 c #49141D",
"8 c #620F1D",
"9 c #65101E",
"0 c #6A111F",
"q c #7D0F21",
"w c #6D1120",
"e c #741222",
"r c #7B1324",
"t c #464646",
"y c #484848",
"u c gray34",
"i c #676968",
"p c #696A6A",
"a c #831427",
"s c #861628",
"d c #8C172A",
"f c #8F182B",
"g c #91172B",
"h c #94192D",
"j c #9A192F",
"k c #9E1B30",
"l c #A11B31",
"z c #A81C33",
"x c #808282",
"c c #9F8E91",
"v c #A29193",
"b c #B3B4B4",
"n c #C1B0B3",
"m c #C3C3C3",
"M c #DCDDDD",
"N c gray94",
/* pixels */
"                                                  ",
"                                                  ",
"                                                  ",
"                     ====*=***==                  ",
"                     566666666472                 ",
"                   =5shhfhghhhdr5=                ",
"                  =9ewewwwedzzkge52               ",
"                  4er2&=*&*0hklkde4-              ",
"                *6sw2+XXXXX=8fzkkge5=             ",
"                6we3+......X&wfkzjd6=             ",
"               3sr2+........o*wjlja62             ",
"              *2fs-X.........%wjljde83            ",
"               3sa2,<o...#1$X&9jkhaae3=           ",
"               2sr7cb:...ynp.&0jgsaar4=           ",
"               3sq7bM<...uNx.&9kge8ee3=           ",
"               2sa7vb:...ymp.&9jg026r3=           ",
"               2ee2>1o...#1$X&9jg028r3=           ",
"              =2e0-X........@5egde2383            ",
"               2e02+.......@3shsa02=-             ",
"                469-+.....%2wdgr95                ",
"                *409=+.XX@20aeww4=                ",
"                  390-&*&2wae622                  ",
"                 26rde00weddr6652                 ",
"                25rhjkjlkkkgsaar6-                ",
"               26rhklllllzlkhkhhr82               ",
"              =2eglllllllkllllllde2*              ",
"               2wfklllklllkllllldw2               ",
"               2ekllllllllllkllljr2               ",
"               3sllllklllklllllkld5-              ",
"               2szlllllllllllllllhr5-             ",
"              36dzllllkhkllkllllljd6=             ",
"             =6rklklllgshllllklllja6-             ",
"             -6sjlllllhajlllkllllja6-             ",
"             =6shjllljaedjllllllkja6=             ",
"             =6aaglljd83wdlllllllja6-             ",
"             -6radkjda820dgjkhhljgaw62            ",
"             -6aadjdrr6-8ragjddjdaaar3=           ",
"             -6aasssr5&O=8rddhhdaaaar3=           ",
"             -6rwwrse2+.O=8eaggaaq0ee3=           ",
"             =6r55raw2@..O=0aaara028e3=           ",
"              458ea03%X..X*8aaw6e02353            ",
"               29e04&X...O*6ee62882==             ",
"                2222&X.   =2222 22--              ",
"                 =*%+X     &@++  *=               ",
"                   ..      ....                   ",
"                   ..      ..                     ",
"                   ..      ..                     ",
"                   ..      ..                     ",
"                                                  ",
"                                                  "
};
