/* XPM */
static char *Pink_copy1704812849[] = {
/* columns rows colors chars-per-pixel */
"50 50 9 1 ",
"  c #D1A9BF",
". c #D4AAC0",
"X c #DBAEC1",
"o c #DCAEC1",
"O c #DAADC1",
"+ c #D3AABF",
"@ c #D4AABF",
"# c #DBADC1",
"$ c white",
/* pixels */
"                        .XooooooooooooooooooooooO+",
"                       @#oooooooooooooooooooooo#@ ",
"                      @#oooooooooooooooooooooo#@  ",
"                     +#oooooooooooooooooooooo#+   ",
"                    @#oooooooooooooooooooooo#@    ",
"                   @#oooooooooooooooooooooo#@     ",
"                  @#oooooooooooooooooooooo#@      ",
"                 +#oooooooooooooooooooooo#+       ",
"                @#oooooooooooooooooooooo#@        ",
"               @#oooooooooooooooooooooo#@         ",
"              +#oooooooooooooooooooooo#+          ",
"             @#oooooooooooooooooooooo#@           ",
"            @#oooooooooooooooooooooo#@            ",
"           @#oooooooooooooooooooooo#@             ",
"          +#oooooooooooooooooooooo#+              ",
"         @#oooooooooooooooooooooo#@               ",
"        @#oooooooooooooooooooooo#@                ",
"       +#oooooooooooooooooooooo#+                 ",
"      @#oooooooooooooooooooooo#@                  ",
"     @#oooooooooooooooooooooo#@                   ",
"    @#oooooooooooooooooooooo#@                    ",
"   +#oooooooooooooooooooooo#+                     ",
"  @#oooooooooooooooooooooo#@                      ",
" @#oooooooooooooooooooooo#@                       ",
".#oooooooooooooooooooooo#@                        ",
"Xoooooooooooooooooooooo#@                        +",
"oooooooooooooooooooooo#@                        @#",
"ooooooooooooooooooooo#@                        @#o",
"oooooooooooooooooooo#+                        +#oo",
"ooooooooooooooooooo#@                        @#ooo",
"oooooooooooooooooo#@                        @#oooo",
"ooooooooooooooooo#@                        @#ooooo",
"oooooooooooooooo#+                        +#oooooo",
"ooooooooooooooo#@                        @#ooooooo",
"oooooooooooooo#@                        @#oooooooo",
"ooooooooooooo#+                        +#ooooooooo",
"oooooooooooo#@                        @#oooooooooo",
"ooooooooooo#@                        @#ooooooooooo",
"oooooooooo#@                        @#oooooooooooo",
"ooooooooo#+                        +#ooooooooooooo",
"oooooooo#@                        @#oooooooooooooo",
"ooooooo#@                        @#ooooooooooooooo",
"oooooo#+                        +#oooooooooooooooo",
"ooooo#@                        @#ooooooooooooooooo",
"oooo#@                        @#oooooooooooooooooo",
"ooo#@                        @#ooooooooooooooooooo",
"oo#+                        +#oooooooooooooooooooo",
"o#@                        @#ooooooooooooooooooooo",
"O@                        @#oooooooooooooooooooooo",
"+                        +#ooooooooooooooooooooooo"
};
