/* XPM */
static char *IndustrialTile_26__1_1704812339[] = {
/* columns rows colors chars-per-pixel */
"50 50 115 2 ",
"   c #38002C",
".  c #38002B",
"X  c #340835",
"o  c #2E1241",
"O  c #2E1341",
"+  c #340836",
"@  c #23295B",
"#  c #222A5C",
"$  c #22295B",
"%  c #2E1342",
"&  c #212B5E",
"*  c #222B5D",
"=  c #21295B",
"-  c #21295C",
";  c #39002A",
":  c #232B5D",
">  c #232C5D",
",  c #232B5C",
"<  c #2D1544",
"1  c #37022E",
"2  c #2B3664",
"3  c #313C69",
"4  c #303B68",
"5  c #283161",
"6  c #262253",
"7  c #291C4C",
"8  c #303D69",
"9  c #394771",
"0  c #37456F",
"q  c #22295C",
"w  c #212B5D",
"e  c #303A67",
"r  c #38436D",
"t  c #36416C",
"y  c #2B3463",
"u  c #212A5D",
"i  c #31204D",
"p  c #391A44",
"a  c #381B46",
"s  c #2B2453",
"d  c #212C5E",
"f  c #232859",
"g  c #340633",
"h  c #330936",
"j  c #252556",
"k  c #272152",
"l  c #242657",
"z  c #252354",
"x  c #252455",
"c  c #232759",
"v  c #222A5B",
"b  c #2C1746",
"n  c #350532",
"m  c #2F1240",
"M  c #3A0028",
"N  c #350633",
"B  c #262252",
"V  c #2A1A4A",
"C  c #2E1443",
"Z  c #38002D",
"A  c #2E1442",
"S  c #23295A",
"D  c #2B1848",
"F  c #310E3C",
"G  c #300F3D",
"H  c #350735",
"J  c #3A002D",
"K  c #222A5D",
"L  c #350734",
"P  c #310025",
"I  c #2A0021",
"U  c #2A1B4B",
"Y  c #350430",
"T  c #1D0015",
"R  c #060004",
"E  c #281F4F",
"W  c #291D4D",
"Q  c #2E1545",
"!  c #290F38",
"~  c #1B0219",
"^  c #0A0007",
"/  c black",
"(  c #39002B",
")  c #310C3A",
"_  c #390029",
"`  c #2A0020",
"'  c #2F1343",
"]  c #27133D",
"[  c #13132C",
"{  c #050912",
"}  c #232A5D",
"|  c #21295A",
" . c #222B5E",
".. c #2B3564",
"X. c #2A3463",
"o. c #262E5F",
"O. c #37456E",
"+. c #36436D",
"@. c #303D6A",
"#. c #384871",
"$. c #374670",
"%. c #212A5C",
"&. c #232A5C",
"*. c #312C59",
"=. c #392D57",
"-. c #372D57",
";. c #2B2B5A",
":. c #301240",
">. c #380531",
",. c #360734",
"<. c #2B1B4B",
"1. c #271E4F",
"2. c #2B1847",
"3. c #2A1949",
"4. c white",
/* pixels */
"    . . . . . . . . . . . . . . . . . . . . .         . . . . . . . . . . . . . . . . . . . . .     ",
"  X o O O O O O O O O O O O O O O O O O O O o +     + o O O O O O O O O O O O O O O O O O O O o X   ",
". o @ # $ $ $ $ $ $ $ $ $ $ $ $ $ $ $ $ $ # @ % . . % @ # $ $ $ $ $ $ $ $ $ $ $ $ $ $ $ $ $ # @ o . ",
". O # & * * * * * * * * * * * * * * * * * & # % . . % # & * * * * * * * * * * * * * * * * * & # O . ",
". O $ * # # # = - # # # # # # # # # # # # * $ O ; ; O $ * # # # # # # # # # # # # - = # # # * $ O . ",
". O $ * # # : > > , # # # # # # # # # # # * $ < 1 1 < $ * # # # # # # # # # # # , > > : # # * $ O . ",
". O $ * # : 2 3 4 5 # # # # # # # # # # # # # 6 7 7 6 # # # # # # # # # # # # # 5 4 3 2 : # * $ O . ",
". O $ * = > 8 9 0 2 q # # # # # # # # # # # # * w w * # # # # # # # # # # # # q 2 0 9 8 > = * $ O . ",
". O $ * - > e r t y # # # # # # # # # # # # # # # # # # # # # # # # # # # # # # y t r e > - * $ O . ",
". O $ * u @ i p a s # # # # # # # # # # # # # * d d * # # # # # # # # # # # # # s a p i @ u * $ O . ",
". O $ * * f % g h 7 * # # # # # # # # # # # # j k k j # # # # # # # # # # # # * 7 h g % f * * $ O . ",
". O $ * # # l z x c # # # # # # # # # # # * v b n n b v * # # # # # # # # # # # c x z l # # * $ O . ",
". O $ * # # w d & * # # # # # # # # # # # * $ m M M m $ * # # # # # # # # # # # * & d w # # * $ O . ",
". O $ * # # # # # # # # # # # # # # # # # * v b N N b v * # # # # # # # # # # # # # # # # # * $ O . ",
". O $ * # # # # # # # # # # # # # # # # # # # l B B l # # # # # # # # # # # # # # # # # # # * $ O . ",
". O $ * # # # # # # # # # # # # # # # # # # # k V V k # # # # # # # # # # # # # # # # # # # * $ O . ",
". O $ * # # # # # # # # # # # # # # # # # * $ C Z Z C $ * # # # # # # # # # # # # # # # # # * $ O . ",
". O $ * # # # # # # # # # # # # # # # # # * $ O ; ; O $ * # # # # # # # # # # # # # # # # # * $ O . ",
". O $ * # # # # # # # # # # # # # # # # * d # A . . A # d * # # # # # # # # # # # # # # # # * $ O . ",
". O $ * # # # # # # # # # # # # # # # # @ S f o . . o f S @ # # # # # # # # # # # # # # # # * $ O . ",
". O $ * # # # # # # # # # # # # # # * @ D F G H J J H G F D @ * # # # # # # # # # # # # # # * $ O . ",
". O # & * * # # # # # # # * * # # K & $ b L Z P I I P Z L b $ & K # # * * # # # # # # # * * & # O . ",
". o @ # $ $ # # # # # # # $ $ # # # v $ f U Y T R R T Y U f $ v # # # $ $ # # # # # # # $ $ # @ o . ",
"  + % % O < 6 * # # # # E % o W c V o % Q ! ~ ^ / / ^ ~ ! Q % o V c W o % E # # # # * 6 < O % % +   ",
"    . . ; 1 7 w # # * # < ( ; o j ) _ . J ` R / / / / R ` J . _ ) j o ; ( < # * # # w 7 1 ; . .     ",
"    . . ; 1 7 w # # * # < ( ; o j ) _ . J ` R / / / / R ` J . _ ) j o ; ( < # * # # w 7 1 ; . .     ",
"  + % % O < 6 * # # # # E % o W c V o % ' ] [ { / / { [ ] ' % o V c W o % E # # # # * 6 < O % % +   ",
". o @ # $ $ # # # # # # # $ $ # # # $ $ $ } | [ R R [ | } $ $ $ # # # $ $ # # # # # # # $ $ # @ o . ",
". O # & * * # # # # # # # * * # # K * * *  .} ] ` ` ] }  .* * * K # # * * # # # # # # # * * & # O . ",
". O $ * # # # # # # # # # # # # # # # # # * $ ' J J ' $ * # # # # # # # # # # # # # # # # # * $ O . ",
". O $ * # # # # # # # # # # # # # # # # # * $ % . . % $ * # # # # # # # # # # # # # # # # # * $ O . ",
". O $ * # # # # # # # # # # # # # # # # # * $ o _ _ o $ * # # # # # # # # # # # # # # # # # * $ O . ",
". O $ * # # # # # # # # # # # # # # # # # K # V ) ) V # K # # # # # # # # # # # # # # # # # * $ O . ",
". O $ * # # # # # # # # # # # # # # # # # # # c j j c # # # # # # # # # # # # # # # # # # # * $ O . ",
". O $ * # # # # # # # # # # # # # # # # # # # W o o W # # # # # # # # # # # # # # # # # # # * $ O . ",
". O $ * # # # # # # # # # # # # # # # # # * $ o ; ; o $ * # # # # # # # # # # # # # # # # # * $ O . ",
". O $ * # # # # # # # # # # # # # # # # # * $ % ( ( % $ * # # # # # # # # # # # # # # # # # * $ O . ",
". O $ * # # # # # # # # # # # # # # # # # # # E < < E # # # # # # # # # # # # # # # # # # # * $ O . ",
". O $ * # # # # # # # # # # # # # # # # # # # # # # # # # # # # # # # # # # # # # # # # # # * $ O . ",
". O $ * # # # # # # # # # # # # # # # # # # # # * * # # # # # # # # # # # # # # # # # # # # * $ O . ",
". O $ * # , 5 ..X.o.# # # # # # # # # # # # # # # # # # # # # # # # # # # # # # o.X...5 , # * $ O . ",
". O $ * - > 4 O.+.X.# # # # # # # # # # # # # # # # # # # # # # # # # # # # # # X.+.O.4 > - * $ O . ",
". O $ * = > @.#.$.2 q # # # # # # # # # # # # * w w * # # # # # # # # # # # # q 2 $.#.@.> = * $ O . ",
". O $ * %.&.*.=.-.;.# # # # # # # # # # # # # 6 7 7 6 # # # # # # # # # # # # # ;.-.=.*.&.%.* $ O . ",
". O $ * w f :.>.,.<.* # # # # # # # # # # * $ < 1 1 < $ * # # # # # # # # # # * <.,.>.:.f w * $ O . ",
". O $ * K @ 1.2.3.z # # # # # # # # # # # * $ O ; ; O $ * # # # # # # # # # # # z 3.2.1.@ K * $ O . ",
". O # & * * & d d w * * * * * * * * * * * & # % . . % # & * * * * * * * * * * * w d d & * * & # O . ",
". o @ # $ $ v # v $ $ $ $ $ $ $ $ $ $ $ $ # @ % . . % @ # $ $ $ $ $ $ $ $ $ $ $ $ v # v $ $ # @ o . ",
"  X o O O O O O O O O O O O O O O O O O O O o +     + o O O O O O O O O O O O O O O O O O O O o X   ",
"    . . . . . . . . . . . . . . . . . . . . .         . . . . . . . . . . . . . . . . . . . . .     "
};
