/* XPM */
static char *Textures_16_copy1704812504[] = {
/* columns rows colors chars-per-pixel */
"50 50 39 1 ",
"  c #363F62",
". c #374163",
"X c #3A4466",
"o c #3C4668",
"O c #3E496A",
"+ c #424D6E",
"@ c #434F70",
"# c #465172",
"$ c #4A5676",
"% c #4C5877",
"& c #4B5778",
"* c #4D5A7A",
"= c #515E7D",
"- c #53607F",
"; c #556282",
": c #596685",
"> c #5B6887",
", c #5E6C8A",
"< c #616E8C",
"1 c #63718F",
"2 c #667492",
"3 c #687794",
"4 c #6A7995",
"5 c #6E7D99",
"6 c #707E9B",
"7 c #73829E",
"8 c #7685A1",
"9 c #7887A3",
"0 c #7A8AA5",
"q c #7E8EA9",
"w c #808FA9",
"e c #8393AD",
"r c #8796B0",
"t c #8897B1",
"y c #8798B1",
"u c #8C9CB5",
"i c #8F9FB8",
"p c #8FA0B8",
"a c #90A1B9",
/* pixels */
"XXXXXXXXXXXoXXo..@-wupppuutuuyupu7<++ ..+XX+XXXXXX",
"XXoXXoXXooo.oXo..@-wruyytuuuuuuii7<$.  +....XX+.XX",
"XoXXXXXXX....... +-60wwwetuuuuupu0<#..+XX.XXXX.+XX",
"XXXXXXXX... .....+=<47567rupiuipi7<#....X.+XXXXXXX",
"XoXXXoXooooo+X+XX+$-<<<<40yuuuuur9<#X.XXXXXXXXXX+X",
"XXXXXo#%=%%=%%$+oo@%=%==<70qwwweq6:+X..XXXX.XXXX.X",
"XX. X+;<343343<-+Xo+#++#;157777761=+..  . . ...XXX",
"oXX +%10eeeeee7<$XXo++++$;,<,<<,<:%+XX+X+.+.+.XXXX",
"Xoo+%<6euiuuiue5:$OOX..oO&;;*;;;-=@oo+#$$$&&&&OOX.",
".o#=<7wtiiiiaatw51;OX..XOO$$O&###+OX+%<1332331:OX ",
" +*17rtuuuuuuuttq9,$O.oooOOOOOOO+XXX@<6weqqqq02*+.",
" +=4riituuuuuuuaur2;OXOOOOOOOXXXXX+#-4wuiuupuy7>$#",
" +=6taautuuuutuapy5*OO&O$;*OOO..X+%<50rupiiipqq71<",
" X=4eiiuuuuuuuuuuq3*OO;;;;;&OO..O#<7qrtuuuuuppyqww",
" +$1wttuuuuuuuuuy02&OO&;;:;&OO..X#<0euuuuttuqpqqee",
" +#<6wrtuuuuuutrq5>#OOO&&;;&OOX.o#:7qeuuiiuipppq7w",
"oOO;17qqupuuiir05,;@ooOO@+OOOoXXo+=<50yuiuuuapq732",
"XOO*;29qrrrreew61;&OXXXXXXXXXXXXX+#;<50rrrryqq72::",
"XoOO&;2799990071;&@OXXXXX. X.  ..o+#;1590999072;*$",
"XXOOO&:23333331:$+oXXXXXXXX XX.X.Xo+$-,3333342;;OO",
"XXXXOO*:>>::>>-%OoXXXXXXo+++O++O++ooO$;>>>::>;;OOX",
"XXXX.OO*******%+OXXXXXXX+*-::::::=+ooO$%***;;&OOoX",
"XXXXXOOOOOOO++++oXXXXX.o$<67777773-OXX++OOOOOOOXX.",
"oooXXOOOOOOO.+.XXXXXXXo+-6etuttue8<$OXooOOOOooOooo",
"OOOOoXXXX.+.XX+ +XXX++%-3wtapiiiuq7>*#O..XXXXoOO##",
";;;&oXXX.. .+....X.X+%<70euppiuiurq73;+X..XXXOO$*=",
">;;OoXXX+....+. .X.X+=7ettittutuuuur8<#X.XoXXO$=;;",
";;OOoXXXXXX+...+XX..+-7taitiuuuuuupiq1#o.X.XXoO*;;",
"*OOOXXXX+..X. +.X...+-7ipputuutuuuppq1$X.XXXXXOOO$",
"OoOoXXXoXXXX.+..+..X+-7uuuuuuuuuuupy0,$X.XXXXXooOO",
"XX.X.XXX..XX+++++...+-4wrtuuuuuuuuyq7,$X.XXXXXXXXX",
".....XXX+.X++$%+X+.X+%<77ruuiiuiuyq72;OXXXXX......",
"XooooXXXXXXO$*;$+X.X+@-<6wrupuupuq93>&Oo.o.XOXXoXX",
"O;&&%#+o..XO%::*+X.X++%=17wwqqqqq83>;OOo..OO#&&&$$",
"22221:$o...+*::*+X.X.++$:167777773>;OOO...O$:23233",
"qqqq05:@X.o+&;;*+XXXXXX+$;<11111<;;OOOXX.oO:5qqqq0",
"pppuy01*OOoO$*;$+ .XXXXX+%-;;;;;;;OOoX.OO+=10tpuuu",
"pppppq83>&OoO$&O+XXXXXX.O+$$$$$$OOOoo.OO$:38eipppp",
"ypyupyr07;#oXOOOXXXXXXX+oO+OOOOOOOOX..X$:5qettuuuu",
"pyuuuupy0,OXXXXo+XXXXXXXXXXXXXXoOoooX..O<7tipuuuuy",
"upuppppp01#X..XX.+ + .X X     XXXXXXX.X#<0ipituuyp",
"uuupuppp0<#..XXX +.XXXXX..XXX XXXXXXX..#<0tiuuuupy",
"rqyqquyq7>@X.XXX .XX+++#+@@@@@OOXXXXX.X#<0uiptuupy",
"000880084:@XXXXX+X. .+%-<>>>>:*@+X.XX.X#<7upiuuuyp",
"33333343,=+XXXXX +  +*167979082;+  ...X#<0upuuuupy",
":::::>>:-#OXXXXX +.+#<7euuuuuy8,#+XXX.X@>7rutrrryy",
"&;;O***%$@OXXXXX.+#=<3wuaiuipuq7<=#+X.X@-47q077099",
"O&OOO@@@OoXXXXXX +=17wruiuiuuuyq72-+X.X+%144434433",
"oooooOooooXXXXX.XO:7qpuuuuuuyuuur7<#. X+$-,<,,,,,,",
"X.X.....XXXXoXX.OO,0papuyuuuuuupuw<#X  +#--,::::::"
};
