/* XPM */
static char *w1703951071[] = {
/* columns rows colors chars-per-pixel */
"50 50 243 2 ",
"   c #0E0E24",
".  c #110E23",
"X  c #0E1127",
"o  c #151325",
"O  c #1A1526",
"+  c #15152B",
"@  c #1A1629",
"#  c #14182E",
"$  c #1C192C",
"%  c #0D1635",
"&  c #151A34",
"*  c #1D1D33",
"=  c #141B39",
"-  c #1A1F39",
";  c #221826",
":  c #2A1B26",
">  c #231B2A",
",  c #2C1E2B",
"<  c #331E27",
"1  c #231E33",
"2  c #291F34",
"3  c #1D2037",
"4  c #1C223C",
"5  c #27232B",
"6  c #2C222B",
"7  c #382527",
"8  c #33222D",
"9  c #3C232B",
"0  c #232135",
"q  c #2B2234",
"w  c #23243C",
"e  c #2B263A",
"r  c #26283F",
"t  c #2B293C",
"y  c #332534",
"u  c #3A2631",
"i  c #342935",
"p  c #3B2935",
"a  c #332738",
"s  c #322A3C",
"d  c #3B2C3B",
"f  c #39333C",
"g  c #462828",
"h  c #592B2B",
"j  c #4A352B",
"k  c #583429",
"l  c #422B33",
"z  c #4B2B32",
"x  c #412D3B",
"c  c #4B2D3B",
"v  c #572E35",
"b  c #4B3435",
"n  c #4C323B",
"m  c #4A3839",
"M  c #533533",
"N  c #5C3232",
"B  c #583839",
"V  c #672D2A",
"C  c #683829",
"Z  c #753728",
"A  c #7B3B2B",
"S  c #663736",
"D  c #743935",
"F  c #7C3C34",
"G  c #58412B",
"H  c #574639",
"J  c #53483F",
"K  c #674A2C",
"L  c #794429",
"P  c #79542B",
"I  c #674538",
"U  c #794738",
"Y  c #69573A",
"T  c #785C3B",
"R  c #6C623B",
"E  c #77663C",
"W  c #1D2542",
"Q  c #1D2845",
"!  c #222742",
"~  c #2A2740",
"^  c #242943",
"/  c #2B2C44",
"(  c #232C4A",
")  c #292E4A",
"_  c #342D42",
"`  c #392F42",
"'  c #2B314C",
"]  c #3B3543",
"[  c #31324B",
"{  c #3A3348",
"}  c #373A51",
"|  c #473945",
" . c #553B45",
".. c #6B3A40",
"X. c #3F4251",
"o. c #584744",
"O. c #5A5248",
"+. c #684545",
"@. c #754542",
"#. c #645348",
"$. c #755845",
"%. c #6C5850",
"&. c #7C6441",
"*. c #797156",
"=. c #873B29",
"-. c #993D2D",
";. c #843B34",
":. c #8A3C32",
">. c #963E32",
",. c #894729",
"<. c #984929",
"1. c #8A562B",
"2. c #99542B",
"3. c #884635",
"4. c #974734",
"5. c #875739",
"6. c #975736",
"7. c #A8472E",
"8. c #B44B2C",
"9. c #BB4E2B",
"0. c #AC5523",
"q. c #A6572A",
"w. c #BB522C",
"e. c #B75A29",
"r. c #AA4431",
"t. c #A34832",
"y. c #AB4C33",
"u. c #B24C30",
"i. c #A55634",
"p. c #B75932",
"a. c #846135",
"s. c #966535",
"d. c #966A32",
"f. c #A8672C",
"g. c #BA642B",
"h. c #A9752E",
"j. c #B0732E",
"k. c #A56C34",
"l. c #AC6834",
"z. c #B66634",
"x. c #AA7837",
"c. c #B67A38",
"v. c #C24C2E",
"b. c #C3532C",
"n. c #CB542C",
"m. c #C55C28",
"M. c #CC5A2B",
"N. c #D45C29",
"B. c #D85C28",
"V. c #C15932",
"C. c #E05D26",
"Z. c #C86626",
"A. c #CD622B",
"S. c #D26525",
"D. c #DC6C25",
"F. c #D66728",
"G. c #DD6329",
"H. c #C7782E",
"J. c #D7782B",
"K. c #C76832",
"L. c #C87933",
"P. c #D67732",
"I. c #E26A23",
"U. c #EB6C25",
"Y. c #E16529",
"T. c #E46629",
"R. c #ED7226",
"E. c #EA7728",
"W. c #E37B2A",
"Q. c #F17325",
"!. c #F77927",
"~. c #F57D26",
"^. c #FA7C24",
"/. c #F2742A",
"(. c #E37B31",
"). c #8E5640",
"_. c #886843",
"`. c #9C6C41",
"'. c #8B7748",
"]. c #987642",
"[. c #A67944",
"{. c #B88637",
"}. c #C8842E",
"|. c #D7882D",
" X c #C68737",
".X c #D68732",
"XX c #DB8C31",
"oX c #C6923C",
"OX c #DA9536",
"+X c #E58B2D",
"@X c #EB882C",
"#X c #FA8427",
"$X c #F48429",
"%X c #FA8529",
"&X c #F78828",
"*X c #FB8C2A",
"=X c #EB902C",
"-X c #F4952E",
";X c #FC952C",
":X c #FE9B2D",
">X c #E88832",
",X c #F38931",
"<X c #E49432",
"1X c #EA9935",
"2X c #F39431",
"3X c #F69934",
"4X c #FC9D31",
"5X c #FFA52F",
"6X c #E6A439",
"7X c #FDA432",
"8X c #FEAB35",
"9X c #F6A538",
"0X c #FEAB3A",
"qX c #FBB53B",
"wX c #FEB53B",
"eX c #98854E",
"rX c #A78644",
"tX c #A8914B",
"yX c #B8994A",
"uX c #BBA951",
"iX c #CD9845",
"pX c #C7A94B",
"aX c #D7AB46",
"sX c #C2AA50",
"dX c #C9B455",
"fX c #D2B553",
"gX c #E3AC46",
"hX c #FCAE40",
"jX c #E7B747",
"kX c #FAB644",
"lX c #FEBB43",
"zX c #EBBC53",
"xX c #DDC255",
"cX c #E9C24E",
"vX c #FEC243",
"bX c #FBC44A",
"nX c #FECA4C",
"mX c #FFD24E",
"MX c #E4C856",
"NX c #F7CB52",
"BX c #E6D25C",
"VX c #FBD656",
"CX c #FFE35A",
/* pixels */
"O O o o o # = ! B 6.F.U.C.n.r.;.h u q w w 1 > @ O o o 9 Z r.n.T.U.S.<.k a e ~ ^ 3 O $ $ r ^ 3 # X   ",
", , : : : 6 e / B 6.J.Q.U.n.r.:.h l y e w 1 1 > @ O : h =.8.C.U.R.S.2.k p e ~ ! 3 $ O 3 4 r r 5 5 O ",
"C k C K K G M B U l.W.!./.B.w.4.F N x e ! - * $ , < g V -.v.C./.~.J.6.M _ ~ ~ r 3 @ $ $ 4 / f m G G ",
"0.0.0.j.j.k.6.3.i.K.2X*X^.U.B.w.-.F N d ! 4 - 2 9 h Z -.b.B./.%X-X.Xs.o./ ^ ! w $ $ O & 4 t H 5.d.{.",
"I.D.J.+X<X.Xz.p.p.P.1X3X-X~.U.B.b.r.F | / ! - a v ;.r.V.Y.U.%X;X4XoX_.o.) ! r w * $ $ * 4 ] $.{.OX9X",
"Z.K.P..X.XL.z.i.i.l.iX.X=X&X#XQ.G.v.4.S c | | v D t.n.T.~.2X3X1XoX[.$.| / w w * * $ 0 i m I s.L.=X:X",
"5.5.5.6.s.5.@.@.@.$._.`. X1X;X#XR.B.w.4.;.D D ;.t.v.G./.9XkXaXyX'.$.o.x s 2 1 $ 3 w s B 5.i.K.P.W.@X",
"| | | M M n | | } } | #.[.OX5X;X~.U.N.w.r.r.r.u.b.B./.3XkXNXfXeXO.| ] d y , $ $ 3 Q ] U q.F.F.A.b.b.",
"' ( ) e q y e / ( ( ( | &.{.XX=X&X$XR.B.n.n.n.N.G.R.$X4XkXzXsX*.} ' ~ d , 2 $ $ - Q ] U m.C.B.9.<.-.",
"( Q ! 1 > 1 * - - W Q { J 5.k.H.+X,X~.U.C.C.C.T.R.$X-X3X3XiX[.%.} ( ^ e q 2 1 * = 3 i D 8.B.9.=.V h ",
"! w 1 * O O O $ * 3 w t d M Y k.XX7X;X^.U.U.U.Q.$X;X7X2X(.K.t.+.| ( ^ r q w 1 1 * # < V <.8.-.h < ; ",
"! w w * $ O O O O $ * w 0 y M d.OXqX8X4X*X#X#X#X*X4X4X2X(.K.y.@. .{ / ~ w ! ! w 0 8 g V :.>.Z 9 ; . ",
") ~ r w $ $ O o O O * * & 2 m '.pXmXmXvXkX0X:X:X;X:X;X*X,X(.K.).@...x ~ W W ( ~ l v V D D S z , o . ",
"' ' ) ! w * $ O o O O $ * w X.eXfXVXCXVXVXbXwX7X;X*X%X&X,X3X>XK.y.;.v s W W ( { S ;.>.;.B x 2 1 O . ",
"' ' ' ^ r 0 * $ O O $ $ * w | '.dXVXVXBXMXjXaXOXXXJ.D.W.,X4X3X(.M.y.F c _ _ |  .3.y.r.3.| r 4 * $ O ",
"' ' ' ) ^ ! w $ > > > , 1 2 | s.iXkXgXpXtXtX].x.d.2.i.g..X;X3X,X,XK.t.D S ....@.i.M.b.4.m W = * 1 * ",
"/ ) ) ) ) ) w w 0 q 8 8 q u M 6.P.>XL.s.Y o.o.o.J m B ,.g.$X*X:X-X+XK.y.4.>.t.r.n.Y.F.2.B r 4 w w ! ",
"! ^ ^ ( ) ) ^ w 0 i u l l m I 2.A.A.q.S l e t t w 3 e N 2.Z.W.=X<XXXH.M.v.v.v.n.Y./.E.q.I d r r ^ ! ",
"* * - ( ( ( ( W w q y l Y &.].k.q.<.Z z 2 1 * = = & * p K 2.q.f.h.f.Z.S.B.C.B.C.R.&X@XK.2.L b q * = ",
"# # * 4 W ( ^ ^ ! 2 y B '.yXpXrX5.C z i 2 * * * + + $ 5 p M M j j L q.S.U.U.U.U.&X:X-X@XJ.e.L g * X ",
"6 5 i f f ] ] ] f d m T tXxXxXtXY l q q r * $ O O O O $ 2 w 0 * > j <.D.!.^.^.%X;X7X5X5X&XI.q.K 7 5 ",
"E E E E T E E T &.&._.eXpXNXcXrXI u 2 0 w * O + O O $ * 3 4 - % # g 1.J.;X4X7X0X0X0X8X5X;X-X}.d.E E ",
"dXuXuXoXoXoXoX{.{.yXsXfXcXvXgXx.K u 0 w 3 * $ O O * * w w ! W = * m s.XX0XlXbXbXvXqX8X8X5X5X6XaXdXuX",
"BXMXcXjX6X1X1X9XqXbXVXVXnXqX<Xh.I l y e 0 1 $ O $ * w r ^ ^ ! 4 y H d.<XwXbXVXVXnXqX8X5X5X8XkXcXBXBX",
"uXuXyX{.{.}.=X5X8XvXmXmXvX5X+Xg.3.N z y e * * * * 4 W W W ! ~ d n U z.+X8XlXmXmXvX5X:X;X:X5X6XpXuXuX",
"R R R K K 1.Z.=X:XwXvXvX8X;XE.S.r.:.V z y 2 w 4 4 W W W W W s v F t.A.E.;X8XqXlX8X;X#X#X&X&XH.d.R Y ",
"; 5 5 ; 7 k 2.D.$X-X9X9X:X&XQ.D.n.r.;.h l a s ~ / / / ~ t i c F r.n.G.E.&X4X7X8X5X$X^.^.~.D.0.C 5 5 ",
"      X @ g L 0.Z.H.H..XXX&X$XU.G.n.7.A S N B  .B I I I I S 3.i.K.(.,X3X4X4X4X;X&X^.U.I.Z.0.Z g O o ",
"  . + = 3 f k L ,.,.1.s.L.=X;X%XR.B.b.7.>.:.:.:.4.q.f.0.q.g.g.P.+X3XqXlXlX0X;X#X#X^.I.m.,.C g < : ; ",
"o O * w / [ d b z z m K k.OX4X;X$XU.S.b.8.r.r.u.w.N.I.I.D.D.E.+X1XqXbXNXNX9X,X^.^.^.I.0.k 7 < < u u ",
"$ 1 w ! ' / _ y y q s B s.XX4X4X3X,XE.Y.n.9.7.4.7.e.S.Z.Z.Z.Z.H.}.oXuXdXpX<X$X^.#X&XJ.2.j $ * q d d ",
"w w ^ / ^ ~ r r w r / B s.P.;XhXkXkX9X~.Y.9.3.D D ,.,.,.=.L L L P P E &.d.c.E.#X:XqX6XrXJ 0 - t _ ` ",
"' ) ) ^ w w w w r ! )  .6.F.,X0XnXnXkX,XI.7.C x p z j z 9 7 7 6 7 7 5 7 k <.S.&X8XnXMXtXO.t 4 ) ' [ ",
"[ [ / r w * 3 0 4 W ) | 5.F.&X0XmXNXjX|.g.,.M e e q < , $ o . o o   X X < Z 0.J.9XnXxXtXJ 3 4 Q ) ' ",
"` ` s q * $ $ * * = Q m 3.F.%X8XvXvXoXf.L k g y 2 1 > $ O o   .   .   . : g L q.oXjXjXrXH 3 % 4 W Q ",
"p p y > $ O O O $ = r n 1.F.^.:X8X6X{.K g < 8 u < , @ O o O O o o o o o > < z K c.<X6Xx.G $ & 3 r r ",
"u 8 < > @ O O $ > q b S 2.S.R.@X<X Xa.j > @ , 8 , > O o O o O O o o o o o $ , M 6..XXXj.K j 7 p b z ",
", , ; @ O + + * i M L <.w.M.M.K.k.a.H i * * > , ; @ o o o O o O O o o . o o $ 9 L z.H.K.f.d.1.1.1.,.",
"> ; > ; @ $ * r m 3.p.F.B.n.w.3.I | f t * * $ @ ; O O O O o O O O O O o o O $ 7 C t.K.P.|.OX|.J.S.S.",
"g 9 g 7 9 9 a ` B f.J./.U.N.u.U n / Q w w * $ O O O $ O O O o o o O : 7 7 7 j k ,.7.M.J.=X-X-X&X#X^.",
",.,.,.Z V D D ..6.K.@X*X^.Y.w.3.M e ! ! r * $ O $ 3 4 3 ; O . . . : g Z L 1.1.6.q.A.G.T.(.,X;X;X;X;X",
"S.m.e.8.r.-.>.t.p.P.3X4X*X!.A.<.N i r ~ ! 3 $ $ * r r r 5 O o . O 7 L 0.Z.|.XX.X+XE.U.T.G.F.(.,X5X8X",
"I.D.N.b.u.r.r.y.p.P.1X3X;X#XD.q.S u e ~ ~ w > $ 5 4 r r $ O o ; < k <.S.~.@X1X<X+XW.D.M.u.p.K..X<X6X",
"l.q.i.4.>.:.;.;.).K..X,X;X*X+X2.k < 2 e s q 6 > 5 r r 3 # o : 7 C <.e.F.I.P. X[.l.q.q.4.3.3.).`.[.rX",
"+.+.I B S v B  .@.).V.P.,X4XXXd.j , > y i u u 8 6 0 > # . O 7 Z 0.S.S.B.V.i.$.+.I S S S  . . .#.#.#.",
"[ [ _ d p u _ _ | D t.w.W.2XXXd.j ; ; , u p 9 8 6 > @ O ; : C 0.S.I.B.8.>.D | [ _ p l d [ [ ' ' [ [ ",
"( ( ^ q 2 1 1 1 _ z V 4.g.P.H.1.j , ; , < 8 8 8 : O O 7 g Z ,.m.C.C.0.=.V | _ ^ w 0 1 1 w w ( W 4 W ",
"W ! w 1 > 1 & 1 1 , g h <.p.g.<.N < > > > > ; ; @ o O g Z 0.m.N.n.9.=.h u y w ! * 1 > @ * * * = * $ ",
"r w 1 * O O O O O O O 9 Z 7.r.:.V 9 , ; O O O O o   ; k <.I.U.B.9.-.V < ; $ 0 0 3 $ O O O O O O O O ",
"! 1 * $ O o o o o   o : V -.r.:.N u , @ O o o o o   ; k 0.U.^.I.v.-.h : . O 3 0 $ $ o o o o o o o O "
};
