/* XPM */
static char *Textures_161704812665[] = {
/* columns rows colors chars-per-pixel */
"50 50 41 1 ",
"  c #140F20",
". c #171223",
"X c #181526",
"o c #1A1729",
"O c #1C1A2C",
"+ c #1E1D32",
"@ c #201E2F",
"# c #201F32",
"$ c #1F2035",
"% c #212136",
"& c #24253B",
"* c #26283E",
"= c #292A3E",
"- c #262740",
"; c #262941",
": c #2A2C44",
"> c #2C2E49",
", c #2E3146",
"< c #2E324B",
"1 c #333447",
"2 c #31354D",
"3 c #34394F",
"4 c #38394C",
"5 c #323651",
"6 c #353B53",
"7 c #393E56",
"8 c #393F58",
"9 c #3B4057",
"0 c #3E455D",
"q c #40475F",
"w c #454A5F",
"e c #404760",
"r c #444B63",
"t c #494F65",
"y c #4A5067",
"u c #4C536A",
"i c #50576E",
"p c #51586F",
"a c #555C72",
"s c #585F75",
"d c #596076",
/* pixels */
"&;:590e03*O. .O=90000e00000000rpay4@. .OO$$$%$&$%$",
";:<60ee03*@X.XO=49000000000000tpdy4%...oO+$%$$$$$&",
"><60rrr09,&$OXO&,9000000e00000tpdy9$OoXXOO++$O$$$$",
"560ruut0992;@OX@*,300e00000000tpdu0>%OoX.OOOOO$$**",
"00ruapue0093=@OO$*,99000000000tpai05;$oX.XoXoo$$;;",
"0erupputtee91&%O+$*29900e0e000rupu05;$OX..X.XO$*><",
"00rrtuuuut0962,%+O$=,990ee000ertur05;$OX..XO+$;,56",
"00e0etpapur0095;@oO$$<50e00000e0e055;$oX.XoO$;<999",
"00000tpdpur00e9:+oXO$*999999999999<<;$OX.o+$;>9900",
"00000ridaur0ee9,+X.oO$$,<<<<:<<;<<><:$OXo$$;<<90ee",
"00000riaaur0008:+o.XoO$*&$*$&&&&&*;<:$Oo+$;>990000",
"00000ridat00096:@...XOO+$$$$++++$$**;$Oo$$;<900ee0",
"00000ridpt0566<;@X...XoooOooOooOoO+$$Ooo+&><900000",
"00000ridpr6<<5>-OX..XXXooooXooo.XoOoOXoo+$;5900e00",
"000rrripy05>>;;-+oooooooooOOOOO++Ooo...o$&;5900000",
"00rryyyr09<>-&$++++O++++O+O$&****$$....oO$;<900000",
"0erupue89<<;$$O$$&&&;$;;$$;;<3663,$o...XO$*,900000",
"0erupt05>>>;$OO$&*;;;;;;;;;<80r009,$oXXXO+$,290000",
"0eerre8>;;&$$$$$;;<<55<<6<58ruur092;&@XXO+$=<9990q",
"0008865>>$++$$$&*;:988888880yppr0099,&OXO$$*$*>90q",
"0885<>>>;$oO$$;;;;<80000000ruapure009;$$O+@$$*,990",
"8855>>;;$Ooo$&;;;;<800ee000ruuuutyre92=$@+O@$$*,33",
"555<>;&$Oooo$&;;;;580e00000rrruupuye096<*$OO+$$,;:",
">>>>;-$O...o$&;;;><900e000000rtuapue0099=$OO+$$$%$",
"---&-++o..Xo$*;;;;<80000000000ruupuurr094=%@O+O$$$",
"++++OOoX..XO$;>><<380r0000r00000tuupitr093,&$OO+$%",
"oooooooXX..O$;<><<68000000000000eruapur0009,%OOO$$",
"ooOOooo.X..O&;<<<<600000000000000euupitrr004=%%O$$",
"$$$+++OX..XO;;<<<<68000r000000000eetuuiuyr093,*%OO",
"---;-$+oX.XO$;<<;<6800000000000000eeruaaur0098,$o.",
">><55<-OoXXO$;;;;<580000r00000000000ruaaue9999,%X ",
"569ee9<$OoXO$$;;;;<80r0000000r000090rudau05553=$. ",
"90euir9;$$oo+$$$%=,90000000000000000eiaar8>><>-+X.",
"0erupi09,$++O+$$$&;39900e00000000eertuite5>>>-&+$$",
"0ertuyy09<*$++O+$$&,,390eee00e000etuute085>-###:,:",
"000erruiy0<*+OoO$$$%*<990e0000000ruair85>>>&#+&269",
"00000ridpr5;$OXoO$$$%=<99999909900uuu05>:>:&##=60e",
"00000ridar6:$OXXoOO+$&:,<<<33559900e00<>-##%::470e",
"00000rpdpe5:$O..XOO$$&&&$*;;><5<<55555>;##@&177qe0",
"e00rrriiy0<&$OXoOO$%*==:*$$*$<>>;>;>>;>;###:690q00",
"8eetuuyr02-#oXo@&=,,,3641*###:&:;-;&-&&%-*:18qq000",
"eetupur7<*#@oX@#,6669qry9>&+##&&&&&&%#O+=<67q0q000",
"9etupy95*#oXX@#:89000tiat6:&&###+$$$+OOO=4qqq00000",
"eeert02-#oXX@#:290rerruutw7<&+X@O++OOOO$:7qe0000e0",
"ee0885-#XXXo#14800000rrrtytq=@X.ooooOOO%,8eeq00000",
"8885>-#oX.X@:7qe000000qqtiiw1@@.XXXXoO+&,500000000",
"865:-###OXX@:7qq000e0900ruiwq1=@o...XO$&:27800q000",
"55>#++###OX@:6qer00000q9wrttyw4=O...oO$&;<570000e0",
"5>-#oO#-#+o+:60e0000000000etipt1OX..oO+&-:<68e0000",
">>-@XO+-&+o+:70q0000e000000tasy2@..XoO$%-:<580e000"
};
